<svg width="378" height="250" viewBox="0 0 378 250" fill="none" xmlns="http://www.w3.org/2000/svg">
<g clip-path="url(#clip0_89_4523)">
<rect width="378" height="250" fill="white"/>
<path d="M286.068 54.2464C286.332 51.7396 289.21 50.4583 291.249 51.9401L333.465 82.6175C335.504 84.0993 335.174 87.2328 332.871 88.2578L285.196 109.479C282.894 110.504 280.345 108.652 280.608 106.145L286.068 54.2464Z" fill="#FB49FF"/>
<path d="M279.602 51.6124C279.822 49.5234 282.221 48.4557 283.92 49.6905L326.135 80.3679C327.834 81.6027 327.56 84.2139 325.641 85.0681L277.966 106.289C276.047 107.143 273.923 105.6 274.142 103.511L279.602 51.6124Z" stroke="black" stroke-width="1.09147"/>
<path d="M257 177.978C257 211.115 230.361 237.978 197.5 237.978C164.639 237.978 138 211.115 138 177.978C138 144.841 164.639 117.978 197.5 117.978C230.361 117.978 257 144.841 257 177.978Z" fill="#49BDFF"/>
<path d="M268.454 177.978C268.454 210.818 242.055 237.432 209.5 237.432C176.945 237.432 150.546 210.818 150.546 177.978C150.546 145.138 176.945 118.524 209.5 118.524C242.055 118.524 268.454 145.138 268.454 177.978Z" stroke="black" stroke-width="1.09147"/>
<path d="M174.625 52.6003C191.012 56.8345 206.029 60.0212 223.021 59.6223C223.502 59.611 228.819 59.2019 228.36 60.1768C226.672 63.7603 219.507 67.3458 216.301 69.3736C206.583 75.5191 195.474 81.1052 186.726 88.6128C185.98 89.2522 182.292 91.4025 181.347 91.1563C179.384 90.645 187.2 77.545 187.946 76.2335C189.379 73.7125 191.942 72.2441 189.456 69.7772C183.986 64.349 179.64 55.9702 172.586 52.6481" stroke="black" stroke-width="1.09147" stroke-linecap="round"/>
<path d="M190.036 71.9542C197.917 67.5106 208.163 68.7346 216.392 65.2168" stroke="black" stroke-width="1.09147" stroke-linecap="round"/>
<path d="M209 127.775C138.312 142.772 157.472 171.797 126.25 171.797C103.419 176.375 60.4194 174.967 46.3944 155.591C33.8596 138.274 22.9097 132.053 32.8841 112.053C40.0956 97.5929 68.5087 118.683 83.5476 112.053C94.4888 107.23 72.4499 83.2695 108.397 55.2116C126.632 49.1646 139.519 67.0637 153.994 71.9012" stroke="black" stroke-width="1.09147" stroke-linecap="round" stroke-linejoin="round" stroke-dasharray="13.1 13.1"/>
<path d="M167.976 82.3594C161.85 83.5765 171.784 82.6775 173.32 82.3594C175.544 81.8988 177.796 81.4845 180 80.9782" stroke="black" stroke-width="1.09147" stroke-linecap="round"/>
<path d="M165 75.7587C169.904 76.5416 174.196 74.9782 179 74.9782" stroke="black" stroke-width="1.09147" stroke-linecap="round"/>
<path d="M162 66.9782C167.997 64.7282 173.135 66.9782 179 66.9782" stroke="black" stroke-width="1.09147" stroke-linecap="round"/>
<rect x="21" y="-37" width="142" height="79" rx="6" fill="#FF496A"/>
<rect x="30" y="-41" width="140" height="77" rx="5" stroke="black" stroke-width="2"/>
</g>
<defs>
<clipPath id="clip0_89_4523">
<rect width="378" height="250" fill="white"/>
</clipPath>
</defs>
</svg>
