<svg width="378" height="250" viewBox="0 0 378 250" fill="none" xmlns="http://www.w3.org/2000/svg">
<g clip-path="url(#clip0_89_4256)">
<rect width="378" height="250" fill="white"/>
<circle cx="22.2728" cy="23.4071" r="29.4071" fill="#FF496A"/>
<circle cx="21.4071" cy="35.4071" r="29.17" stroke="black" stroke-width="0.474308"/>
<path d="M29.3216 208.377C27.2539 205.598 27.8616 202.958 29.4382 199.942C31.4185 196.154 36.2693 189.725 41.1376 189.798C47.1 189.887 47.5977 201.05 47.2788 205.151C46.9763 209.039 45.8117 213.514 41.4874 214.44C39.386 214.89 35.8161 214.012 38.65 211.583C40.9287 209.63 45.2736 208.434 48.1339 207.755C48.9368 207.564 57.3477 207.018 56.2574 205.928" stroke="black" stroke-width="2" stroke-linecap="round"/>
<path d="M36.3179 227.267C46.599 220.232 56.8666 213.017 68.4426 208.221C70.5093 207.365 72.529 206.632 74.6421 205.928C75.5751 205.617 75.0681 205.387 74.7976 205.928" stroke="black" stroke-width="2" stroke-linecap="round"/>
<path d="M53.1089 225.168C52.0448 222.204 53.9449 225.705 54.0806 226.995C54.119 227.359 54.1503 231.035 54.3916 230.882C56.8783 229.299 59.9703 228.559 62.5539 227.267" stroke="black" stroke-width="2" stroke-linecap="round"/>
<path d="M62.2041 222.02C63.1927 226.518 64.591 230.716 66.674 234.807C67.0863 235.617 67.4513 236.747 67.4513 235.312" stroke="black" stroke-width="2" stroke-linecap="round"/>
<path d="M76.8965 189.487C79.0485 191.932 80.0674 194.87 81.3663 197.805C81.7302 198.627 82.1102 199.315 82.8433 198.582" stroke="black" stroke-width="2" stroke-linecap="round"/>
<path d="M76.5466 196.483C78.4701 194.666 80.3688 193.583 82.7656 192.48C83.839 191.985 85.1051 191.61 85.6418 190.536" stroke="black" stroke-width="2" stroke-linecap="round"/>
<path d="M81.7939 158.703C86.093 162.192 87.8298 166.757 90.345 171.529C91.1186 172.997 92.2625 175.4 94.0375 175.844" stroke="black" stroke-width="2" stroke-linecap="round"/>
<path d="M92.988 189.487C97.273 185.42 102.323 182.269 107.408 179.303C107.766 179.095 110.445 177.943 109.08 177.943" stroke="black" stroke-width="2" stroke-linecap="round"/>
<path d="M99.9843 192.985C99.9843 194.241 99.9647 195.499 99.9843 196.755C100.006 198.175 100.575 197.911 101.967 197.455C104.516 196.618 106.999 195.583 109.546 194.734C110.125 194.541 110.194 194.462 110.479 194.034" stroke="black" stroke-width="2" stroke-linecap="round"/>
<path d="M108.38 188.437C110.003 193.538 111.431 198.68 113.472 203.635C113.814 204.467 115.026 204.444 115.026 203.479" stroke="black" stroke-width="2" stroke-linecap="round"/>
<path d="M112.927 164.3C114.101 162.935 116.454 159.934 118.525 160.452" stroke="black" stroke-width="2" stroke-linecap="round"/>
<path d="M116.775 176.194C117.715 173.727 119.319 171.782 121.595 170.402C122.312 169.968 122.972 169.872 123.422 169.197" stroke="black" stroke-width="2" stroke-linecap="round"/>
<path d="M122.022 136.315C117.999 134.495 118.506 130.845 122.683 129.105C127.257 127.199 132.691 127.409 134.655 132.544C135.871 135.727 136.046 139.583 135.102 142.864C134.139 146.208 131.391 148.106 129.796 151.007C129.087 152.296 129.299 152.896 130.768 152.406" stroke="black" stroke-width="2" stroke-linecap="round"/>
<path d="M133.217 159.403C131.686 160.091 130.648 161.075 132.906 161.501C133.888 161.687 137.451 162.263 135.238 160.452C134.729 160.035 129.319 157.579 130.768 159.752" stroke="black" stroke-width="2" stroke-linecap="round"/>
<path d="M205.245 192.512C205.245 213.461 186.891 233.038 207.84 233.038C228.789 233.038 278.113 223.443 278.113 202.494C278.113 181.545 250.15 156.777 229.201 156.777C208.253 156.777 205.245 171.563 205.245 192.512Z" fill="#FF496A"/>
<path d="M197.3 175.378C191.798 172.957 187.687 170.583 181.82 172.868C173.943 175.935 167.75 181.341 165.253 189.686C160.601 205.234 169.358 223.866 183.996 230.351C209.198 241.517 269.705 233.675 262.314 194.706C259.938 182.179 253.505 169.507 243.32 161.614C235.909 155.87 224.248 156.881 215.415 157.346C206.223 157.83 200.705 161.391 196.128 169.019C194.095 172.407 192.656 175.553 192.028 179.478C191.897 180.298 191.275 184.113 191.275 181.402" stroke="black" stroke-width="2.21667" stroke-linecap="round"/>
<path d="M191.275 176.131C188.891 171.993 185.792 168.275 183.577 164.082C183.082 163.144 181.508 159.193 180.314 158.852C177.365 158.01 187.697 154.844 189.016 152.535C189.043 152.489 190.689 159.959 190.899 160.986C191.718 164.993 191.478 169.002 192.196 172.951C192.384 173.989 195.474 180.547 193.535 177.637" stroke="black" stroke-width="2.21667" stroke-linecap="round"/>
<path d="M191.276 167.847C190.852 165.622 189.96 162.57 190.648 160.275C191.989 155.806 200.454 153.019 203.743 149.983C203.908 149.83 205.584 147.796 205.584 148.017C205.584 151.008 206.014 154.315 205.207 157.221C203.773 162.383 195.818 165.264 192.196 169.353C191.004 170.699 185.404 178.51 189.769 177.637" stroke="black" stroke-width="2.21667" stroke-linecap="round"/>
<path d="M225.764 175.45C228.797 173.38 232.16 172.26 235.559 170.927C237.587 170.131 239.866 169.583 240.762 167.492" stroke="black" stroke-width="2.21667" stroke-linecap="round"/>
<path d="M229.437 187.693C233.456 185.157 237.538 183.008 241.85 181.028C244.165 179.964 246.441 178.925 248.108 176.98" stroke="black" stroke-width="2.21667" stroke-linecap="round"/>
<path d="M239.844 191.979C242.928 189.95 245.67 188.131 249.197 187.081C250.623 186.657 251.674 186.271 252.7 185.245" stroke="black" stroke-width="2.21667" stroke-linecap="round"/>
<path d="M192.099 165.536C192.911 164.206 194.336 161.271 195.788 160.384C197.178 159.535 198.74 159.046 200.12 158.159C201.758 157.107 205.159 155.863 205.799 153.944" stroke="black" stroke-width="3" stroke-linecap="round"/>
<path d="M99.4062 92.9865C102.448 87.2287 103.991 81.2636 105.934 75.1099C106.226 74.1869 106.627 73.0584 107.742 73.1012C110.765 73.2175 113.22 77.0398 115.274 78.8258C117.646 80.888 120.348 82.5177 122.857 84.3997C123.464 84.8552 126.51 88.0776 127.426 87.1615C129.347 85.2405 127.317 73.2649 127.477 70.3896C127.754 65.3971 128.33 60.5491 128.33 55.5259C128.33 50.2634 135.036 58.0985 136.465 59.744C137.618 61.071 143.309 71.1931 145.002 71.1931C147.116 71.1931 141.395 51.6573 140.784 49.8013C137.533 39.9289 135.137 29.3884 132.9 19.3206C132.734 18.5739 131.946 14.8444 131.946 16.3579C131.946 20.1309 132.592 24.1688 130.59 27.5057C129.699 28.9912 126.197 37.0104 128.832 31.0208C130.747 26.6685 132.85 22.7922 132.85 17.9648C132.85 13.2061 135.189 19.1807 136.967 21.1284C139.561 23.9695 141.728 25.0889 144.6 27.0036" stroke="black" stroke-width="2" stroke-linecap="round"/>
<path d="M179.03 116.29C177.134 117.001 175.918 117.799 175.552 115.42C175.206 113.169 175.452 110.757 176.154 108.599C179.81 97.3599 188.067 86.0245 194.88 76.5308C201.128 67.8246 211.151 61.2987 221.163 57.5708C229.792 54.3579 243.475 57.1064 249.82 63.5898C255.928 69.8301 256.628 82.2306 255.94 90.408C255.485 95.821 253.366 101.542 249.486 105.422C246.831 108.077 240.044 111.589 238.284 106.559C236.25 100.749 238.303 95.164 241.795 90.3411C247.074 83.0511 254.918 75.3 264.433 74.8922C276.602 74.3707 283.441 87.6913 285.132 98.099C286.48 106.39 282.808 117.936 275.468 122.777C269.881 126.462 265.343 122.112 267.309 115.822C270.558 105.426 283.793 106.057 292.188 106.057C302.944 106.057 311.313 105.791 319.875 98.8346" stroke="black" stroke-width="2" stroke-linecap="round"/>
<path d="M301.216 94.6213C307.787 95.4692 313.537 94.8288 319.775 92.5146C322.577 91.4754 324.618 90.3675 326.229 87.7997C326.334 87.6321 327.459 85.1501 327.968 86.0943C330.022 89.9105 328.027 98.3272 327.834 102.379C327.77 103.717 328.849 110.243 327.7 109.669" stroke="black" stroke-width="2" stroke-linecap="round"/>
<path d="M82 60.9649C87.0281 63.6586 89.333 68.9416 91.4236 74.0302C94.1182 80.5887 96.1631 87.3994 98.7708 93.9955C100.406 98.1304 102.005 102.278 103.531 106.454C104.067 107.923 104.845 112.322 106.597 113.034C108.314 113.732 112.608 108.498 113.561 107.604C119.644 101.901 126.374 96.8251 133.175 92.0149C137.427 89.0073 141.825 86.4377 146.464 84.0927C147.472 83.5831 148.786 83.218 149.275 82.2399" stroke="black" stroke-width="2" stroke-linecap="round"/>
<rect width="148.764" height="21.2236" rx="4.35966" transform="matrix(0.681553 0.731768 -0.733467 0.679725 272.567 -53.277)" fill="#FFD049"/>
<rect x="-0.0188604" y="0.512802" width="148.038" height="20.4969" rx="3.99635" transform="matrix(0.681553 0.731768 -0.733467 0.679725 272.937 -57.822)" stroke="black" stroke-width="0.72661"/>
<rect x="-0.512892" y="-0.0162423" width="148.038" height="20.4969" rx="3.99635" transform="matrix(-0.728279 0.68528 -0.683461 -0.729987 352.95 196.816)" stroke="black" stroke-width="0.72661"/>
</g>
<defs>
<clipPath id="clip0_89_4256">
<rect width="378" height="250" fill="white"/>
</clipPath>
</defs>
</svg>
