<svg width="378" height="250" viewBox="0 0 378 250" fill="none" xmlns="http://www.w3.org/2000/svg">
<rect width="378" height="250" fill="white"/>
<rect x="136.848" y="87.666" width="85.5519" height="85.5519" rx="3.91094" stroke="black" stroke-width="0.977736" stroke-linejoin="round"/>
<rect x="154.936" y="72.5111" width="85.5519" height="85.5519" rx="3.91094" stroke="black" stroke-width="0.977736" stroke-linejoin="round"/>
<path d="M139.716 112.066C138.967 116.349 139.433 115.196 141.533 113.546C144.87 110.924 148.742 109.002 152.026 106.315C152.81 105.674 155.241 103.687 152.732 104.802C149.699 106.15 146.975 108.671 144.257 110.553C142.107 112.042 139.799 113.9 137.9 115.699C134.684 118.746 137.845 116.405 139.851 115.228C143.684 112.978 149.208 112.082 152.43 109.039C152.946 108.551 153.643 108.056 154.246 107.694C154.906 107.298 154.023 107.064 153.641 107.829" stroke="#49BDFF" stroke-width="1.4666" stroke-linecap="round"/>
<path d="M139.111 141.126C143.288 137.752 147.914 135.052 152.127 131.776C155.658 129.029 153.155 130.953 150.883 132.684C147.612 135.175 144.469 137.643 141.062 139.915C139.468 140.977 137.789 142.979 136.084 143.547" stroke="#49BDFF" stroke-width="1.4666" stroke-linecap="round"/>
<path d="M138.506 172.001C140.985 169.446 142.98 167.58 145.737 165.375C147.405 164.04 149.308 162.956 150.614 161.238C150.983 160.752 155.536 157.471 154.851 157.471" stroke="#49BDFF" stroke-width="1.4666" stroke-linecap="round"/>
<path d="M137.9 90.8774C143.458 87.6461 149.593 86.1909 154.246 81.7964C154.731 81.3381 156.366 78.7126 155.457 78.7694C154.215 78.8471 152.786 81.2742 151.219 81.7964" stroke="#49BDFF" stroke-width="1.4666" stroke-linecap="round"/>
<path d="M167.565 172.606C171.479 167.771 177.483 163.044 183.305 161.104" stroke="#49BDFF" stroke-width="1.4666" stroke-linecap="round"/>
<path d="M188.754 173.212C191.798 169.587 195.187 165.286 199.045 162.449C199.41 162.181 202.827 161.104 202.072 161.104" stroke="#49BDFF" stroke-width="1.4666" stroke-linecap="round"/>
<path d="M219.629 173.212C223.641 170.078 226.947 166.405 231.266 163.525C233.617 161.958 235.283 158.682 238.397 158.682" stroke="#49BDFF" stroke-width="1.4666" stroke-linecap="round"/>
<path d="M209.943 170.79C213.113 168.857 215.93 166.619 218.553 163.996C220.051 162.498 222.106 161.626 223.261 159.893" stroke="#49BDFF" stroke-width="1.4666" stroke-linecap="round"/>
<path d="M159.089 151.417C154.403 154.826 159.425 152.304 161.78 151.148C169.264 147.475 176.472 143.233 183.843 139.343C194.797 133.562 206.635 128.021 216.602 120.677C220.091 118.106 224.504 116.828 228.407 115.093C230.591 114.123 232.342 113.419 232.342 110.856" stroke="#FFD049" stroke-width="1.4666" stroke-linecap="round"/>
<path d="M179.673 156.866C195.938 149.974 212.298 143.155 228.575 136.282C231.043 135.24 233.926 134.58 236.244 133.255C238.296 132.083 236.797 132.153 235.369 131.439" stroke="#FFD049" stroke-width="1.4666" stroke-linecap="round"/>
<path d="M153.64 130.834C167.105 122.979 178.571 112.248 191.915 104.196C201.535 98.3913 212.216 94.2365 221.311 87.5141C222.985 86.2767 225.047 85.1958 226.894 84.2181C228.354 83.4447 229.059 82.0976 230.526 81.3256C232.341 80.3706 236.254 79.3749 232.342 79.3749" stroke="#FFD049" stroke-width="1.4666" stroke-linecap="round"/>
<path d="M157.878 106.618C166.253 102.43 173.471 96.6824 181.825 92.2901C187.797 89.1504 193.703 85.9488 199.516 82.5364C201.941 81.1133 204.38 79.5062 206.916 78.2986C208.71 77.4441 212.659 76.9687 213.575 75.1371" stroke="#FFD049" stroke-width="1.4666" stroke-linecap="round"/>
<path d="M156.667 94.5098C162.501 90.5837 168.272 86.9563 174.359 83.4781C177.668 81.5873 181.049 80.1341 183.91 77.5587C185.359 76.2551 187.293 76.0635 188.619 75.0025C190.319 73.6426 190.506 73.9263 188.148 73.9263" stroke="#FFD049" stroke-width="1.4666" stroke-linecap="round"/>
<path d="M140.44 207.883C139.808 208.156 138.003 208.98 138.691 208.98C142.63 208.98 148.004 207.808 151.621 207.471C164.417 206.28 177.24 205.412 190.067 204.625C195.008 204.322 201.257 204.721 206.152 203.253C206.973 203.007 207.407 202.072 206.358 201.984C203.232 201.724 199.975 199.254 197.509 197.526C195.019 195.78 192.994 193.618 190.719 191.627C188.541 189.721 191.61 191.973 191.61 190.906C191.61 190.665 197.613 195.747 198.607 196.497C203.66 200.309 220.133 209.76 215.069 205.962C214.118 205.249 215.062 204.923 213.148 205.688C208.786 207.433 204.07 210.377 200.733 213.713C199.455 214.991 199.997 214.37 200.939 214.056" stroke="black" stroke-width="1.4666" stroke-linecap="round"/>
<path d="M112.043 159.731C112.043 143.513 107.722 127.799 107.722 111.579C107.722 106.259 92.8481 126.796 96.6097 123.034C99.8804 119.763 103.027 115.335 105.115 111.236C106.466 108.584 106.062 107.345 108.339 110.207C109.392 111.531 116.979 121.461 117.599 120.222" stroke="black" stroke-width="1.4666" stroke-linecap="round"/>
<path d="M57.2103 186.292C56.861 183.906 57.7761 182.292 58.5564 180.053C59.8295 176.399 61.3426 173.268 63.647 170.129C66.3971 166.382 74.0048 158.211 79.4581 161.583C89.9507 168.071 84.2362 183.77 74.5618 187.722C74.1697 187.882 71.6945 188.438 71.5127 188.059C70.2647 185.459 72.394 182.07 74.4141 180.635C75.1881 180.085 76.5029 178.864 77.5324 179.387C79.1317 180.199 79.9831 181.768 80.2714 183.456C81.1443 188.566 78.9745 192.986 75.7415 196.902C72.6802 200.61 67.3215 203.826 62.718 205.135C60.0343 205.899 54.2839 207.786 51.7449 205.988C50.5066 205.111 50.4146 203.46 50.7023 202.037C51.0328 200.403 51.1077 198.583 51.7056 197.022C52.3152 195.43 53.3739 193.95 54.1281 192.418C55.5509 189.529 56.9586 187.847 59.4209 185.832C60.786 184.715 62.3497 184.329 63.7105 183.424C65.7556 182.062 67.1056 188.442 67.3641 189.258C68.8761 194.032 68.055 197.989 66.2451 202.571C64.1798 207.8 60.8029 211.725 56.9479 215.748C55.7428 217.005 53.9991 218.207 53.3841 219.892C52.4989 222.317 52.727 224.538 54.1833 226.725C54.7693 227.606 55.6789 228.557 56.6073 229.071C57.2988 229.453 57.9476 230.177 58.6142 230.649C59.6649 231.393 60.8694 231.53 61.9062 232.212C64.6578 234.022 68.1924 234.696 71.3896 234.844C76.5424 235.082 81.1512 236.283 86.4025 235.386C91.7533 234.472 97.3214 232.245 102.173 229.831C107.96 226.952 112.645 221.725 116.282 216.466C125.047 203.791 117.128 188.485 107.077 179.327C103.559 176.123 99.1736 173.235 94.2151 173.431C92.4778 173.499 89.4829 173.738 87.9734 174.701C86.4391 175.679 81.751 177.041 82.1631 179.454" stroke="black" stroke-width="1.18063" stroke-linecap="round"/>
<path d="M92.6006 195.33C92.2433 192.959 92.6055 190.774 94.2374 188.878C96.1664 186.637 97.7866 188.344 98.6822 190.49C99.3494 192.089 102.255 201.618 98.5299 202.044C96.3914 202.288 96.719 195.38 96.8951 194.147C96.9679 193.637 96.6052 192.092 96.8523 191.743C97.0916 191.405 98.1259 195.37 98.1933 195.765C98.5235 197.698 98.7222 199.325 98.4737 201.236C98.2841 202.694 98.2667 200.502 98.1704 199.938C97.8379 197.992 97.5055 196.046 97.1731 194.1C96.8649 192.295 96.8445 190.009 97.8454 193.249C98.6411 195.826 98.6353 198.353 99.0617 200.849" stroke="black" stroke-width="1.18063" stroke-linecap="round"/>
<path d="M80.8574 210.581C81.1357 209.689 83.574 204.122 85.4369 206.16C87.4866 208.403 87.9496 211.178 88.4397 214.048C88.8232 216.293 87.0786 215.61 86.0749 214.084C84.9592 212.386 85.1681 210.497 84.556 208.661C84.3262 207.972 83.9777 207.867 84.3317 207.228C84.6304 206.688 85.0972 209.556 85.147 209.848C85.406 211.364 85.6188 213.256 86.5041 214.562C86.9952 215.286 87.1719 215.4 86.9996 214.232C86.7845 212.774 86.3513 211.517 85.9497 210.12C85.867 209.832 85.4784 208.228 86.1245 209.109C86.4874 209.603 88.508 214.448 88.1988 212.638" stroke="black" stroke-width="1.18063" stroke-linecap="round"/>
<path d="M96.4641 207.179C98.0891 208.534 100.661 209.556 102.735 208.234C103.264 207.896 103.266 206.613 103.185 208.238C103.149 208.973 103.025 213.656 102.629 213.116" stroke="black" stroke-width="1.18063" stroke-linecap="round"/>
<path d="M102.664 221.94C105.226 221.437 104.799 220.489 105.393 218.53" stroke="black" stroke-width="1.18063" stroke-linecap="round"/>
<path d="M297.013 43.2457C295.051 41.438 293.006 41.2669 290.473 40.5823C286.34 39.4653 282.535 38.8942 278.229 39.0405C273.089 39.215 260.876 41.0665 260.554 48.1533C259.934 61.7889 277.844 66.3647 287.492 59.992C287.883 59.7337 289.935 57.8188 289.702 57.4163C288.105 54.6533 283.681 54.4844 281.109 55.4341C280.123 55.798 278.187 56.2376 278.022 57.5044C277.766 59.4722 278.669 61.2295 280.031 62.5465C284.156 66.533 289.548 67.3086 295.143 66.7984C300.441 66.3153 306.723 63.4261 310.793 60.0374C313.165 58.0619 318.478 53.9855 318.419 50.5436C318.391 48.8649 316.94 47.7506 315.46 47.1256C313.761 46.4077 312.051 45.3403 310.252 44.9125C308.417 44.4762 306.404 44.5196 304.534 44.2529C301.006 43.7498 298.591 43.9867 295.214 44.9789C293.341 45.5289 292.013 46.7171 290.336 47.3949C287.816 48.4138 292.803 53.6287 293.387 54.3741C296.805 58.7344 300.933 60.4538 306.249 61.6595C312.315 63.0354 318.008 62.3995 324.09 61.3879C325.991 61.0716 328.177 60.2286 330.1 60.7182C332.869 61.4229 334.755 63.0169 335.845 65.7126C336.283 66.7972 336.585 68.2218 336.475 69.3908C336.393 70.2614 336.649 71.3058 336.665 72.2095C336.689 73.6338 336.063 74.82 336.039 76.1928C335.975 79.8361 334.385 83.4862 332.525 86.4995C329.527 91.3561 327.748 96.3166 323.652 100.555C319.478 104.873 313.967 108.57 308.735 111.497C302.493 114.988 294.793 116.007 287.719 116.047C270.668 116.145 261.626 99.3594 259.531 84.461C258.798 79.2471 258.896 73.438 262.17 69.0298C263.317 67.4854 265.404 64.8983 267.226 64.1199C269.077 63.3286 273.247 59.8951 275.194 61.7774" stroke="black" stroke-width="1.3063" stroke-linecap="round"/>
<path d="M283.186 81.2213C281.243 79.4148 279.02 78.3826 276.27 78.6904C273.018 79.0543 273.567 81.5997 274.969 83.7572C276.013 85.3646 282.907 93.9657 285.62 90.8279C287.177 89.0264 280.662 85.0153 279.425 84.4066C278.914 84.1548 277.728 82.859 277.255 82.867C276.797 82.8748 279.775 86.2942 280.093 86.6023C281.654 88.1104 283.016 89.307 284.917 90.2724C286.367 91.009 284.376 89.6255 283.921 89.1858C282.35 87.6675 280.779 86.1493 279.209 84.631C277.752 83.2233 275.676 81.7777 278.012 84.7144C279.869 87.0493 282.182 88.621 284.196 90.5684" stroke="black" stroke-width="1.3063" stroke-linecap="round"/>
<path d="M304.448 80.0087C303.46 79.7067 296.852 78.4604 297.552 81.4343C298.321 84.7065 300.568 86.8616 302.884 89.0999C304.697 90.8517 305.161 88.8315 304.393 86.9618C303.538 84.8833 301.682 83.8952 300.386 82.1902C299.9 81.55 300.022 81.1664 299.217 81.0907C298.537 81.0269 300.866 83.2432 301.102 83.4707C302.325 84.6536 303.922 86.0288 304.562 87.6526C304.917 88.5532 304.911 88.7857 303.952 87.8994C302.753 86.7928 301.875 85.6126 300.849 84.3736C300.638 84.1186 299.415 82.7625 299.816 83.9024C300.042 84.5428 303.207 89.412 301.746 88" stroke="black" stroke-width="1.3063" stroke-linecap="round"/>
<path d="M291.601 92.1451C291.825 94.4753 291.154 97.4631 288.651 98.5327C288.012 98.8057 286.839 98.0062 288.375 98.9472C289.068 99.3722 293.425 102.181 293.179 101.483" stroke="black" stroke-width="1.3063" stroke-linecap="round"/>
<path d="M301.218 107.021C299.16 109.049 298.56 108.066 296.4 107.387" stroke="black" stroke-width="1.3063" stroke-linecap="round"/>
<path d="M17.8858 154.123C16.5782 153.049 16.6242 151.033 17.9795 150.02L30.1585 140.914C31.4803 139.926 33.3763 140.398 34.0792 141.892L46.9252 169.186C47.4526 170.306 47.1191 171.643 46.1274 172.384L44.6182 173.513C43.657 174.231 42.3292 174.201 41.4018 173.439L17.8858 154.123Z" fill="#FFD049"/>
<circle cx="48.9144" cy="177.355" r="3.47668" transform="rotate(-36.7849 48.9144 177.355)" fill="#FFD049"/>
<path d="M11.0445 161.614C9.67197 160.891 9.34076 159.072 10.3703 157.912L20.4634 146.538C21.4676 145.406 23.2573 145.48 24.1643 146.691L42.2491 170.835C42.9297 171.743 42.8773 173.005 42.1239 173.854L40.8733 175.264C40.143 176.087 38.9453 176.305 37.9718 175.792L11.0445 161.614Z" stroke="black" stroke-width="0.434585"/>
<circle cx="46.0186" cy="178.305" r="3.25939" transform="rotate(-48.4156 46.0186 178.305)" stroke="black" stroke-width="0.434585"/>
<path d="M352.883 23.1054C354.25 22.1079 356.19 22.6565 356.832 24.2221L362.603 38.2913C363.23 39.8183 362.298 41.5358 360.676 41.8429L331.037 47.4555C329.82 47.6859 328.609 47.0288 328.139 45.8831L327.424 44.1397C326.969 43.0293 327.33 41.7513 328.3 41.0438L352.883 23.1054Z" fill="#FFD049"/>
<circle cx="322.63" cy="47.3388" r="3.47668" transform="rotate(67.6966 322.63 47.3388)" fill="#FFD049"/>
<path d="M347.341 14.6083C348.384 13.4601 350.228 13.5941 351.094 14.8811L359.583 27.498C360.427 28.7532 359.908 30.4675 358.509 31.0429L330.61 42.5155C329.56 42.9473 328.351 42.5811 327.717 41.6393L326.665 40.0759C326.051 39.163 326.14 37.9488 326.879 37.1344L347.341 14.6083Z" stroke="black" stroke-width="0.434585"/>
<circle cx="322.434" cy="44.2972" r="3.25939" transform="rotate(56.0659 322.434 44.2972)" stroke="black" stroke-width="0.434585"/>
</svg>
