<svg width="1920" height="1080" viewBox="0 0 1920 1080" fill="none" xmlns="http://www.w3.org/2000/svg">
<path d="M490 506.498C492.709 430.647 531.583 344 593.669 299.16C642.403 263.963 729.596 243.187 766.39 303.788C796.061 352.659 807.228 422.422 806.561 479.1C806.23 507.277 778.226 527.761 749.914 522.419C712.255 515.313 718.327 419.398 720.479 393.573C725.532 332.942 779.925 291.564 834.515 276.76C869.793 267.193 922.436 262.542 957.807 275.094C986.531 285.286 1009.58 322.403 1017.97 349.884C1027.34 380.538 1022.82 396.352 993.906 412.455C978.116 421.25 954.74 435.893 946.515 415.788C932.647 381.889 925.392 345.607 940.776 309.712C964.583 254.161 1015.39 212.862 1074.81 201.785C1129.69 191.553 1188.05 196.601 1243.82 196.601C1289.05 196.601 1321.28 188.1 1356.01 156.244C1394.02 121.382 1434.84 85.6099 1465.23 43.6892C1472.19 34.0934 1489.67 13.0397 1489.67 0" stroke="#7DD0FF" stroke-width="23" stroke-linecap="round" stroke-dasharray="46 46"/>
<path d="M1919.67 715.771C1916.96 791.622 1878.08 878.269 1816 923.109C1767.26 958.306 1680.07 979.082 1643.28 918.481C1613.61 869.61 1602.44 799.847 1603.11 743.169C1603.44 714.992 1631.44 694.508 1659.75 699.85C1697.41 706.956 1691.34 802.871 1689.19 828.696C1684.14 889.327 1629.74 930.705 1575.15 945.509C1539.87 955.076 1487.23 959.726 1451.86 947.175C1423.14 936.983 1400.09 899.866 1391.69 872.385C1382.33 841.731 1386.85 825.917 1415.76 809.813C1431.55 801.019 1454.93 786.376 1463.15 806.481C1477.02 840.379 1484.28 876.662 1468.89 912.557C1445.08 968.108 1394.28 1009.41 1334.86 1020.48C1279.98 1030.72 1221.61 1025.67 1165.84 1025.67C1120.62 1025.67 1088.39 1034.17 1053.66 1066.02C1015.65 1100.89 974.829 1136.66 944.436 1178.58C937.479 1188.18 920 1209.23 920 1222.27" stroke="#7DD0FF" stroke-width="23" stroke-linecap="round" stroke-dasharray="46 46"/>
</svg>
