<svg width="378" height="250" viewBox="0 0 378 250" fill="none" xmlns="http://www.w3.org/2000/svg">
<g clip-path="url(#clip0_89_4370)">
<rect width="378" height="250" fill="white"/>
<path d="M217.047 52.8377C216.829 51.4672 217.446 50.874 217.936 49.6749C218.237 48.938 218.426 48.1214 218.814 47.4321C219.16 46.8166 219.77 45.6614 219.093 45.2099" stroke="black" stroke-width="2" stroke-linecap="round"/>
<path d="M209.233 48.3727C208.893 46.5855 208.9 44.5124 209.057 42.6984C209.099 42.2234 209.133 41.5359 209.274 41.0757C209.433 40.5594 209.652 40.1048 209.047 40.5589" stroke="black" stroke-width="2" stroke-linecap="round"/>
<ellipse cx="193.593" cy="185.527" rx="7.84632" ry="10.0259" transform="rotate(-24.175 193.593 185.527)" fill="#FFD049"/>
<path d="M189.489 177.297C187.39 177.297 185.652 176.959 184.151 178.631C181.511 181.574 180.905 186.078 183.299 189.27C185.405 192.078 195.122 199.2 197.866 193.162C199.539 189.482 199.925 181.931 196.421 179.336C193.683 177.308 186.564 172.934 184.819 177.297" stroke="black" stroke-width="2" stroke-linecap="round"/>
<path d="M196.049 166.786C191.552 167.428 188.297 162.601 190.578 158.673L217.856 111.704L231.887 83.7949C232.905 81.7687 234.98 80.4899 237.247 80.4899L240.361 80.4899C241.867 80.4899 243.317 81.0559 244.425 82.0754L247.057 84.4982C249.001 86.288 249.546 89.1392 248.398 91.5195L241.861 105.07C241.553 105.71 241.133 106.29 240.621 106.783L223.92 122.881C223.512 123.274 223.161 123.724 222.879 124.215L199.996 164.109C199.163 165.562 197.707 166.549 196.049 166.786Z" fill="#FFD049"/>
<path d="M137.076 87.2238C143.806 86.965 151.147 86.1504 157.463 83.8877C158.305 82.0349 158.28 78.6547 158.798 76.5855C159.991 71.8104 166.02 69.7006 170.172 68.2472L170.177 68.2454C179.365 65.0298 188.848 66.8387 197.792 69.8763C204.549 72.1709 210.368 81.5125 210.173 88.5582C210.054 92.8339 207.87 98.8032 206.503 102.903C204.827 107.93 202.689 112.977 200.128 117.619C197.111 123.087 194.281 129.002 190.824 134.188C188.832 137.175 183.998 140.159 183.521 143.974C182.967 148.406 183.185 153.148 182.854 157.614C182.628 160.67 181.34 165.287 182.187 168.253C182.395 168.979 183.761 167.993 184.152 167.808C185.906 166.977 187.964 167.289 189.86 167.289C190.948 167.289 198.331 168.293 198.793 166.214C200.021 160.687 199.372 155.299 201.499 149.793C205.121 140.418 212.983 134.128 218.328 125.625C222.477 119.025 224.949 111.749 228.818 104.979C231.891 99.6007 234.192 91.7502 234.192 85.5557C234.192 78.1443 231.06 73.5131 227.557 67.2075C223.742 60.3406 219.522 54.2704 212.434 50.4902C205.437 46.7587 198.739 42.9204 190.675 42.0018C183.776 41.2159 176.818 42.1857 170.14 43.8552C163.064 45.6242 157.229 49.1032 150.791 52.3806C146.19 54.7232 141.065 58.1814 138.262 62.6853C135.929 66.436 133.814 70.3486 132.925 74.6951C132.211 78.1829 134.032 81.0064 134.111 84.4067C134.196 88.0562 133.774 87.3508 137.076 87.2238Z" stroke="black" stroke-width="2" stroke-linecap="round"/>
<path d="M156.564 84.308C158.815 82.6709 161.944 81.6762 164.639 81.0027C166.94 80.4272 169.693 81.098 170.919 78.7834C171.411 77.8528 172.28 77.4191 172.618 76.2336C172.949 75.0761 172.902 73.855 173.232 72.7395C173.592 71.5248 175.858 67.8193 175.688 68.1593" stroke="black" stroke-width="2" stroke-linecap="round"/>
<path d="M199.061 166.326C201.482 164.418 203.705 159.368 206.922 158.653C208.155 158.379 208.363 155.298 208.41 154.427C208.539 152.045 209.736 149.146 210.322 146.801C211.831 140.764 213.096 134.437 216.484 129.354" stroke="black" stroke-width="2" stroke-linecap="round"/>
<path d="M181.862 41.8116C184.426 41.8116 187.159 41.4192 189.701 41.0561C197.757 39.9052 206.866 39.2752 214.585 42.1421C222.327 45.018 228.662 48.6141 233.991 54.9855C236.581 58.082 239.595 60.9302 241.995 64.1694C244.704 67.8268 245.135 70.4744 245.701 74.8643C246.64 82.1391 244.968 90.5809 242.302 97.2458C239.831 103.423 236.122 108.257 231.347 112.781C229.951 114.103 228.607 115.473 227.263 116.818C225.719 118.361 223.56 119.292 221.998 120.855" stroke="black" stroke-width="2" stroke-linecap="round"/>
<path d="M199.559 161.859C200.56 160.242 202.278 159.127 203.621 157.797C204.547 156.879 205.464 155.953 206.386 155.032C207.118 154.3 209.314 152.103 208.582 152.835" stroke="black" stroke-width="2" stroke-linecap="round"/>
<path d="M200.675 154.975L210.443 145.208" stroke="black" stroke-width="2" stroke-linecap="round"/>
<path d="M203.094 147.161L211.094 139.161" stroke="black" stroke-width="2" stroke-linecap="round"/>
<path d="M158.071 78.8836C159.667 78.8456 161.188 78.0734 162.722 77.6743C164.997 77.0829 167.317 76.3385 169.492 75.4522C170.208 75.1604 170.877 74.882 171.611 74.646C172.351 74.408 173.048 74.4053 171.839 74.2325" stroke="black" stroke-width="2" stroke-linecap="round"/>
<path d="M161.42 74.2325C163.559 73.0809 165.872 72.484 168.221 71.8967C168.939 71.7171 169.878 71.8172 170.547 71.5246C170.767 71.428 173.158 70.613 172.583 70.3257" stroke="black" stroke-width="2" stroke-linecap="round"/>
<path d="M225.047 113.488C225.758 113.339 231.186 112.499 231.186 111.441" stroke="black" stroke-width="2" stroke-linecap="round"/>
<path d="M228.581 106.232C230.086 105.663 231.668 105.317 233.191 104.785C234.842 104.208 236.333 103.326 237.873 102.511C238.433 102.215 239.079 101.896 239.568 101.488C239.876 101.231 240.302 101.582 240.488 101.209" stroke="black" stroke-width="2" stroke-linecap="round"/>
<path d="M231.93 98.7901C233.928 97.2915 235.714 95.6133 237.801 94.2218C239.006 93.4181 239.857 92.2888 241.129 91.6275C242.134 91.1048 243.879 89.7768 244.395 88.7439" stroke="black" stroke-width="2" stroke-linecap="round"/>
<path d="M234.907 86.6974C236.363 85.4842 237.626 84.0507 239.041 82.7905C240.425 81.5582 241.796 80.2598 242.865 78.7389C243.529 77.7949 243.989 76.8385 244.912 76.093C245.17 75.8842 245.325 75.1316 245.325 74.7907" stroke="black" stroke-width="2" stroke-linecap="round"/>
<path d="M233.046 76.279C233.937 74.9819 234.982 73.8751 236.033 72.7132C237.367 71.2393 237.68 69.6636 238.452 67.9278C239.076 66.5236 240.302 65.6395 240.302 64.0002" stroke="black" stroke-width="2" stroke-linecap="round"/>
<path d="M228.954 68.2792C230.08 66.4884 231.56 64.8499 232.551 62.9873C233.291 61.5953 233.374 59.8938 233.977 58.4293C234.32 57.5962 235.093 56.3269 235.093 55.4423" stroke="black" stroke-width="2" stroke-linecap="round"/>
<path d="M196.049 166.786C191.552 167.428 188.297 162.601 190.578 158.673L217.856 111.704L231.887 83.7949C232.905 81.7687 234.98 80.4899 237.247 80.4899L240.361 80.4899C241.867 80.4899 243.317 81.0559 244.425 82.0754L247.057 84.4982C249.001 86.288 249.546 89.1392 248.398 91.5195L241.861 105.07C241.553 105.71 241.133 106.29 240.621 106.783L223.92 122.881C223.512 123.274 223.161 123.724 222.879 124.215L199.996 164.109C199.163 165.562 197.707 166.549 196.049 166.786Z" fill="#FFD049"/>
<path d="M137.076 87.2238C143.806 86.965 151.147 86.1504 157.463 83.8877C158.305 82.0349 158.28 78.6547 158.798 76.5855C159.991 71.8104 166.02 69.7006 170.172 68.2472L170.177 68.2454C179.365 65.0298 188.848 66.8387 197.792 69.8763C204.549 72.1709 210.368 81.5125 210.173 88.5582C210.054 92.8339 207.87 98.8032 206.503 102.903C204.827 107.93 202.689 112.977 200.128 117.619C197.111 123.087 194.281 129.002 190.824 134.188C188.832 137.175 183.998 140.159 183.521 143.974C182.967 148.406 183.185 153.148 182.854 157.614C182.628 160.67 181.34 165.287 182.187 168.253C182.395 168.979 183.761 167.993 184.152 167.808C185.906 166.977 187.964 167.289 189.86 167.289C190.948 167.289 198.331 168.293 198.793 166.214C200.021 160.687 199.372 155.299 201.499 149.793C205.121 140.418 212.983 134.128 218.328 125.625C222.477 119.025 224.949 111.749 228.818 104.979C231.891 99.6007 234.192 91.7502 234.192 85.5557C234.192 78.1443 231.06 73.5131 227.557 67.2075C223.742 60.3406 219.522 54.2704 212.434 50.4902C205.437 46.7587 198.739 42.9204 190.675 42.0018C183.776 41.2159 176.818 42.1857 170.14 43.8552C163.064 45.6242 157.229 49.1032 150.791 52.3806C146.19 54.7232 141.065 58.1814 138.262 62.6853C135.929 66.436 133.814 70.3486 132.925 74.6951C132.211 78.1829 134.032 81.0064 134.111 84.4067C134.196 88.0562 133.774 87.3508 137.076 87.2238Z" stroke="black" stroke-width="2" stroke-linecap="round"/>
<path d="M156.564 84.308C158.815 82.6709 161.944 81.6762 164.639 81.0027C166.94 80.4272 169.693 81.098 170.919 78.7834C171.411 77.8528 172.28 77.4191 172.618 76.2336C172.949 75.0761 172.902 73.855 173.232 72.7395C173.592 71.5248 175.858 67.8193 175.688 68.1593" stroke="black" stroke-width="2" stroke-linecap="round"/>
<path d="M199.061 166.326C201.482 164.418 203.705 159.368 206.922 158.653C208.155 158.379 208.363 155.298 208.41 154.427C208.539 152.045 209.736 149.146 210.322 146.801C211.831 140.764 213.096 134.437 216.484 129.354" stroke="black" stroke-width="2" stroke-linecap="round"/>
<path d="M181.862 41.8116C184.426 41.8116 187.159 41.4192 189.701 41.0561C197.757 39.9052 206.866 39.2752 214.585 42.1421C222.327 45.018 228.662 48.6141 233.991 54.9855C236.581 58.082 239.595 60.9302 241.995 64.1694C244.704 67.8268 245.135 70.4744 245.701 74.8643C246.64 82.1391 244.968 90.5809 242.302 97.2458C239.831 103.423 236.122 108.257 231.347 112.781C229.951 114.103 228.607 115.473 227.263 116.818C225.719 118.361 223.56 119.292 221.998 120.855" stroke="black" stroke-width="2" stroke-linecap="round"/>
<path d="M199.559 161.859C200.56 160.242 202.278 159.127 203.621 157.797C204.547 156.879 205.464 155.953 206.386 155.032C207.118 154.3 209.314 152.103 208.582 152.835" stroke="black" stroke-width="2" stroke-linecap="round"/>
<path d="M200.675 154.975L210.443 145.208" stroke="black" stroke-width="2" stroke-linecap="round"/>
<path d="M203.094 147.161L211.094 139.161" stroke="black" stroke-width="2" stroke-linecap="round"/>
<path d="M158.071 78.8836C159.667 78.8456 161.188 78.0734 162.722 77.6743C164.997 77.0829 167.317 76.3385 169.492 75.4522C170.208 75.1604 170.877 74.882 171.611 74.646C172.351 74.408 173.048 74.4053 171.839 74.2325" stroke="black" stroke-width="2" stroke-linecap="round"/>
<path d="M161.42 74.2325C163.559 73.0809 165.872 72.484 168.221 71.8967C168.939 71.7171 169.878 71.8172 170.547 71.5246C170.767 71.428 173.158 70.613 172.583 70.3257" stroke="black" stroke-width="2" stroke-linecap="round"/>
<path d="M225.047 113.488C225.758 113.339 231.186 112.499 231.186 111.441" stroke="black" stroke-width="2" stroke-linecap="round"/>
<path d="M228.581 106.232C230.086 105.663 231.668 105.317 233.191 104.785C234.842 104.208 236.333 103.326 237.873 102.511C238.433 102.215 239.079 101.896 239.568 101.488C239.876 101.231 240.302 101.582 240.488 101.209" stroke="black" stroke-width="2" stroke-linecap="round"/>
<path d="M231.93 98.7901C233.928 97.2915 235.714 95.6133 237.801 94.2218C239.006 93.4181 239.857 92.2888 241.129 91.6275C242.134 91.1048 243.879 89.7768 244.395 88.7439" stroke="black" stroke-width="2" stroke-linecap="round"/>
<path d="M234.907 86.6974C236.363 85.4842 237.626 84.0507 239.041 82.7905C240.425 81.5582 241.796 80.2598 242.865 78.7389C243.529 77.7949 243.989 76.8385 244.912 76.093C245.17 75.8842 245.325 75.1316 245.325 74.7907" stroke="black" stroke-width="2" stroke-linecap="round"/>
<path d="M233.046 76.279C233.937 74.9819 234.982 73.8751 236.033 72.7132C237.367 71.2393 237.68 69.6636 238.452 67.9278C239.076 66.5236 240.302 65.6395 240.302 64.0002" stroke="black" stroke-width="2" stroke-linecap="round"/>
<path d="M228.954 68.2792C230.08 66.4884 231.56 64.8499 232.551 62.9873C233.291 61.5953 233.374 59.8938 233.977 58.4293C234.32 57.5962 235.093 56.3269 235.093 55.4423" stroke="black" stroke-width="2" stroke-linecap="round"/>
<path d="M221.698 58.9771C222.022 57.1386 222.769 55.5873 223.703 53.9953C224.282 53.0087 224.129 51.747 224.344 50.6465C224.494 49.8795 224.683 49.2195 224.902 48.476C225.083 47.8615 225.627 47.2564 224.675 47.2564" stroke="black" stroke-width="2" stroke-linecap="round"/>
<path d="M197.243 194.442C201.948 189.737 203.708 180.401 197.243 176.245C196.065 175.487 194.151 175.192 192.731 175.192C191.987 175.192 190.865 174.984 190.258 175.426C190 175.614 188.069 175.894 189.122 175.192" stroke="black" stroke-width="2" stroke-linecap="round"/>
<path d="M193.333 178.2C194.527 177.716 195.809 177.263 196.943 176.696" stroke="black" stroke-width="2" stroke-linecap="round"/>
<path d="M197.544 180.606C198.123 180.38 199.072 180.257 199.349 179.704" stroke="black" stroke-width="2" stroke-linecap="round"/>
<path d="M199.951 184.516C200.31 184.244 202.081 183.326 201.455 183.012" stroke="black" stroke-width="2" stroke-linecap="round"/>
<path d="M347.069 78.9887C347.439 77.6512 348.246 77.3673 349.189 76.4793C349.769 75.9335 350.28 75.2691 350.919 74.8026C351.489 74.3861 352.523 73.5878 352.094 72.8962" stroke="black" stroke-width="2" stroke-linecap="round"/>
<path d="M341.81 71.6856C342.241 69.9182 343.107 68.0346 344.003 66.4493C344.237 66.0342 344.554 65.4227 344.873 65.0627C345.232 64.6587 345.62 64.336 344.881 64.4981" stroke="black" stroke-width="2" stroke-linecap="round"/>
<ellipse cx="270.707" cy="190.009" rx="7.84632" ry="10.0259" transform="rotate(0.322214 270.707 190.009)" fill="#FFD049"/>
<path d="M270.385 180.818C268.475 179.947 267.033 178.919 264.974 179.819C261.351 181.401 258.933 185.249 259.787 189.146C260.54 192.575 266.428 203.084 271.43 198.728C274.478 196.073 277.96 189.362 275.847 185.547C274.197 182.567 269.532 175.635 266.135 178.881" stroke="black" stroke-width="2" stroke-linecap="round"/>
<path d="M280.712 173.973C276.354 172.693 275.394 166.95 279.098 164.321L323.396 132.892L347.737 113.313C349.504 111.891 351.921 111.588 353.985 112.528L356.819 113.819C358.189 114.443 359.274 115.56 359.859 116.947L361.25 120.243C362.277 122.678 361.59 125.498 359.558 127.188L347.992 136.808C347.445 137.263 346.823 137.617 346.153 137.853L324.28 145.577C323.745 145.765 323.24 146.029 322.78 146.36L285.415 173.173C284.054 174.15 282.319 174.445 280.712 173.973Z" fill="#FFD049"/>
<path d="M260.039 77.1198C266.27 79.6746 273.288 81.9773 279.974 82.5375C281.509 81.2007 282.888 78.1143 284.216 76.4459C287.283 72.5957 293.643 73.1753 298.024 73.5746L298.03 73.5751C307.723 74.4585 315.603 80.0368 322.483 86.5098C327.679 91.3993 329.102 102.313 326.002 108.643C324.121 112.485 319.658 117.011 316.715 120.175C313.105 124.055 309.067 127.76 304.811 130.923C299.799 134.648 294.771 138.857 289.475 142.143C286.424 144.035 280.788 144.746 278.772 148.019C276.43 151.823 274.662 156.228 272.509 160.156C271.036 162.843 267.949 166.509 267.491 169.56C267.378 170.307 269.03 169.976 269.463 169.969C271.403 169.941 273.147 171.078 274.872 171.864C275.862 172.315 282.165 176.29 283.447 174.59C286.856 170.07 288.5 164.897 292.718 160.77C299.902 153.74 309.664 151.276 318.053 145.755C324.566 141.469 329.833 135.873 336.16 131.317C341.186 127.697 346.536 121.508 349.104 115.871C352.178 109.127 351.248 103.614 350.675 96.4232C350.051 88.5925 348.727 81.3187 343.845 74.9398C339.025 68.6431 334.521 62.3728 327.565 58.1935C321.612 54.6175 314.879 52.6149 308.109 51.3651C300.937 50.0408 294.184 50.7871 286.967 51.1C281.809 51.3237 275.711 52.3456 271.293 55.2821C267.614 57.7274 264.068 60.4109 261.456 63.9975C259.361 66.8755 259.847 70.1997 258.509 73.3267C257.073 76.6829 256.981 75.866 260.039 77.1198Z" stroke="black" stroke-width="2" stroke-linecap="round"/>
<path d="M278.982 82.5471C281.709 81.9907 284.969 82.3831 287.7 82.8873C290.033 83.3181 292.26 85.07 294.335 83.4719C295.169 82.8293 296.139 82.7947 296.939 81.8564C297.72 80.9402 298.183 79.8094 298.946 78.9314C299.777 77.9752 303.375 75.5427 303.08 75.7816" stroke="black" stroke-width="2" stroke-linecap="round"/>
<path d="M283.644 174.803C286.639 174.071 290.756 170.397 293.98 171.081C295.215 171.343 296.682 168.625 297.086 167.852C298.191 165.737 300.482 163.596 301.988 161.705C305.864 156.838 309.638 151.604 314.829 148.384" stroke="black" stroke-width="2" stroke-linecap="round"/>
<path d="M319.624 54.366C321.957 55.4291 324.606 56.2052 327.07 56.9286C334.878 59.222 343.428 62.4256 349.263 68.235C355.116 74.0625 359.39 79.9618 361.598 87.9692C362.67 91.8608 364.232 95.7025 365.072 99.645C366.021 104.097 365.316 106.684 364.011 110.914C361.848 117.923 356.826 124.912 351.637 129.871C346.827 134.467 341.447 137.329 335.227 139.465C333.408 140.09 331.617 140.779 329.836 141.445C327.791 142.21 325.441 142.162 323.371 142.936" stroke="black" stroke-width="2" stroke-linecap="round"/>
<path d="M285.95 170.944C287.531 169.888 289.557 169.587 291.33 168.932C292.553 168.481 293.772 168.019 294.993 167.563C295.962 167.2 298.872 166.112 297.902 166.475" stroke="black" stroke-width="2" stroke-linecap="round"/>
<path d="M289.82 165.143L302.758 160.305" stroke="black" stroke-width="2" stroke-linecap="round"/>
<path d="M295.261 159.036L305.858 155.073" stroke="black" stroke-width="2" stroke-linecap="round"/>
<path d="M282.602 78.2359C284.07 78.8631 285.774 78.7908 287.336 79.0641C289.651 79.4691 292.071 79.7535 294.418 79.8491C295.191 79.8805 295.914 79.9043 296.681 79.994C297.453 80.0844 298.088 80.3707 297.059 79.7121" stroke="black" stroke-width="2" stroke-linecap="round"/>
<path d="M287.578 75.3922C290.002 75.2311 292.354 75.6469 294.736 76.0866C295.464 76.221 296.276 76.7012 297.006 76.7123C297.247 76.7159 299.76 76.9654 299.356 76.4655" stroke="black" stroke-width="2" stroke-linecap="round"/>
<path d="M329.201 137.496C329.91 137.656 335.197 139.142 335.636 138.18" stroke="black" stroke-width="2" stroke-linecap="round"/>
<path d="M335.425 132.359C337.03 132.466 338.613 132.807 340.22 132.954C341.961 133.114 343.684 132.93 345.423 132.826C346.056 132.789 346.775 132.766 347.39 132.598C347.777 132.492 348.018 132.988 348.343 132.725" stroke="black" stroke-width="2" stroke-linecap="round"/>
<path d="M341.558 126.976C343.998 126.441 346.319 125.654 348.795 125.253C350.225 125.022 351.468 124.347 352.899 124.272C354.031 124.214 356.169 123.728 357.067 123.003" stroke="black" stroke-width="2" stroke-linecap="round"/>
<path d="M349.282 117.206C351.109 116.706 352.854 115.925 354.664 115.365C356.434 114.818 358.22 114.205 359.824 113.264C360.819 112.68 361.634 112.001 362.783 111.705C363.105 111.622 363.558 111.001 363.699 110.691" stroke="black" stroke-width="2" stroke-linecap="round"/>
<path d="M351.908 106.954C353.256 106.143 354.667 105.569 356.105 104.948C357.93 104.16 358.868 102.856 360.29 101.596C361.44 100.577 362.922 100.281 363.602 98.7892" stroke="black" stroke-width="2" stroke-linecap="round"/>
<path d="M351.501 97.9775C353.268 96.8146 355.295 95.9375 356.969 94.6534C358.22 93.6937 359.001 92.1797 360.157 91.0971C360.814 90.4812 362.044 89.6468 362.411 88.8418" stroke="black" stroke-width="2" stroke-linecap="round"/>
<path d="M280.712 173.973C276.354 172.693 275.394 166.95 279.098 164.321L323.396 132.892L347.737 113.313C349.504 111.891 351.921 111.588 353.985 112.528L356.819 113.819C358.189 114.443 359.274 115.56 359.859 116.947L361.25 120.243C362.277 122.678 361.59 125.498 359.558 127.188L347.992 136.808C347.445 137.263 346.823 137.617 346.153 137.853L324.28 145.577C323.745 145.765 323.24 146.029 322.78 146.36L285.415 173.173C284.054 174.15 282.319 174.445 280.712 173.973Z" fill="#FFD049"/>
<path d="M260.039 77.1198C266.27 79.6746 273.288 81.9773 279.974 82.5375C281.509 81.2007 282.888 78.1143 284.216 76.4459C287.283 72.5957 293.643 73.1753 298.024 73.5746L298.03 73.5751C307.723 74.4585 315.603 80.0368 322.483 86.5098C327.679 91.3993 329.102 102.313 326.002 108.643C324.121 112.485 319.658 117.011 316.715 120.175C313.105 124.055 309.067 127.76 304.811 130.923C299.799 134.648 294.771 138.857 289.475 142.143C286.424 144.035 280.788 144.746 278.772 148.019C276.43 151.823 274.662 156.228 272.509 160.156C271.036 162.843 267.949 166.509 267.491 169.56C267.378 170.307 269.03 169.976 269.463 169.969C271.403 169.941 273.147 171.078 274.872 171.864C275.862 172.315 282.165 176.29 283.447 174.59C286.856 170.07 288.5 164.897 292.718 160.77C299.902 153.74 309.664 151.276 318.053 145.755C324.566 141.469 329.833 135.873 336.16 131.317C341.186 127.697 346.536 121.508 349.104 115.871C352.178 109.127 351.248 103.614 350.675 96.4232C350.051 88.5925 348.727 81.3187 343.845 74.9398C339.025 68.6431 334.521 62.3728 327.565 58.1935C321.612 54.6175 314.879 52.6149 308.109 51.3651C300.937 50.0408 294.184 50.7871 286.967 51.1C281.809 51.3237 275.711 52.3456 271.293 55.2821C267.614 57.7274 264.068 60.4109 261.456 63.9975C259.361 66.8755 259.847 70.1997 258.509 73.3267C257.073 76.6829 256.981 75.866 260.039 77.1198Z" stroke="black" stroke-width="2" stroke-linecap="round"/>
<path d="M278.982 82.5471C281.709 81.9907 284.969 82.3831 287.7 82.8873C290.033 83.3181 292.26 85.07 294.335 83.4719C295.169 82.8293 296.139 82.7947 296.939 81.8564C297.72 80.9402 298.183 79.8094 298.946 78.9314C299.777 77.9752 303.375 75.5427 303.08 75.7816" stroke="black" stroke-width="2" stroke-linecap="round"/>
<path d="M283.644 174.803C286.639 174.071 290.756 170.397 293.98 171.081C295.215 171.343 296.682 168.625 297.086 167.852C298.191 165.737 300.482 163.596 301.988 161.705C305.864 156.838 309.638 151.604 314.829 148.384" stroke="black" stroke-width="2" stroke-linecap="round"/>
<path d="M319.624 54.366C321.957 55.4291 324.606 56.2052 327.07 56.9286C334.878 59.222 343.428 62.4256 349.263 68.235C355.116 74.0625 359.39 79.9618 361.598 87.9692C362.67 91.8608 364.232 95.7025 365.072 99.645C366.021 104.097 365.316 106.684 364.011 110.914C361.848 117.923 356.826 124.912 351.637 129.871C346.827 134.467 341.447 137.329 335.227 139.465C333.408 140.09 331.617 140.779 329.836 141.445C327.791 142.21 325.441 142.162 323.371 142.936" stroke="black" stroke-width="2" stroke-linecap="round"/>
<path d="M285.95 170.944C287.531 169.888 289.557 169.587 291.33 168.932C292.553 168.481 293.772 168.019 294.993 167.563C295.962 167.2 298.872 166.112 297.902 166.475" stroke="black" stroke-width="2" stroke-linecap="round"/>
<path d="M289.82 165.143L302.758 160.305" stroke="black" stroke-width="2" stroke-linecap="round"/>
<path d="M295.261 159.036L305.858 155.073" stroke="black" stroke-width="2" stroke-linecap="round"/>
<path d="M282.602 78.2359C284.07 78.8631 285.774 78.7908 287.336 79.0641C289.651 79.4691 292.071 79.7535 294.418 79.8491C295.191 79.8805 295.914 79.9043 296.681 79.994C297.453 80.0844 298.088 80.3707 297.059 79.7121" stroke="black" stroke-width="2" stroke-linecap="round"/>
<path d="M287.578 75.3922C290.002 75.2311 292.354 75.6469 294.736 76.0866C295.464 76.221 296.276 76.7012 297.006 76.7123C297.247 76.7159 299.76 76.9654 299.356 76.4655" stroke="black" stroke-width="2" stroke-linecap="round"/>
<path d="M329.201 137.496C329.91 137.656 335.197 139.142 335.636 138.18" stroke="black" stroke-width="2" stroke-linecap="round"/>
<path d="M335.425 132.359C337.03 132.466 338.613 132.807 340.22 132.954C341.961 133.114 343.684 132.93 345.423 132.826C346.056 132.789 346.775 132.766 347.39 132.598C347.777 132.492 348.018 132.988 348.343 132.725" stroke="black" stroke-width="2" stroke-linecap="round"/>
<path d="M341.558 126.976C343.998 126.441 346.319 125.654 348.795 125.253C350.225 125.022 351.468 124.347 352.899 124.272C354.031 124.214 356.169 123.728 357.067 123.003" stroke="black" stroke-width="2" stroke-linecap="round"/>
<path d="M349.282 117.206C351.109 116.706 352.854 115.925 354.664 115.365C356.434 114.818 358.22 114.205 359.824 113.264C360.819 112.68 361.634 112.001 362.783 111.705C363.105 111.622 363.558 111.001 363.699 110.691" stroke="black" stroke-width="2" stroke-linecap="round"/>
<path d="M351.908 106.954C353.256 106.143 354.667 105.569 356.105 104.948C357.93 104.16 358.868 102.856 360.29 101.596C361.44 100.577 362.922 100.281 363.602 98.7892" stroke="black" stroke-width="2" stroke-linecap="round"/>
<path d="M351.501 97.9775C353.268 96.8146 355.295 95.9375 356.969 94.6534C358.22 93.6937 359.001 92.1797 360.157 91.0971C360.814 90.4812 362.044 89.6468 362.411 88.8418" stroke="black" stroke-width="2" stroke-linecap="round"/>
<path d="M348.756 86.5041C349.813 84.9656 351.135 83.8634 352.646 82.8022C353.582 82.1445 353.965 80.9327 354.618 80.0206C355.072 79.3848 355.518 78.8628 356.026 78.2769C356.445 77.7926 357.191 77.4678 356.324 77.0728" stroke="black" stroke-width="2" stroke-linecap="round"/>
<path d="M270.332 199.635C276.564 197.304 282.037 189.538 277.877 183.075C277.119 181.897 275.5 180.835 274.208 180.246C273.531 179.938 272.596 179.284 271.861 179.434C271.547 179.498 269.675 178.952 270.924 178.75" stroke="black" stroke-width="2" stroke-linecap="round"/>
<path d="M273.508 183.233C274.796 183.288 276.15 183.407 277.417 183.361" stroke="black" stroke-width="2" stroke-linecap="round"/>
<path d="M276.343 187.169C276.964 187.203 277.878 187.485 278.359 187.096" stroke="black" stroke-width="2" stroke-linecap="round"/>
<path d="M276.911 191.725C277.351 191.626 279.344 191.525 278.903 190.98" stroke="black" stroke-width="2" stroke-linecap="round"/>
<path d="M75.2533 71.4744C74.3752 70.3998 74.61 69.5766 74.4298 68.294C74.319 67.5057 74.0721 66.7046 74.0603 65.9138C74.0497 65.2077 73.9956 63.9024 73.1832 63.8531" stroke="black" stroke-width="2" stroke-linecap="round"/>
<path d="M66.2542 71.5482C65.0606 70.1751 64.0234 68.3801 63.2468 66.7331C63.0435 66.3019 62.727 65.6906 62.6178 65.2217C62.4953 64.6956 62.4559 64.1925 62.1612 64.8895" stroke="black" stroke-width="2" stroke-linecap="round"/>
<ellipse cx="121.76" cy="197.94" rx="7.84632" ry="10.0259" transform="rotate(-54.3892 121.76 197.94)" fill="#FFD049"/>
<path d="M114.071 192.894C112.257 193.95 110.586 194.533 110.13 196.733C109.329 200.605 111.073 204.802 114.747 206.355C117.981 207.722 129.961 208.987 129.294 202.388C128.888 198.366 125.422 191.647 121.087 191.168C117.701 190.793 109.348 190.596 110.035 195.244" stroke="black" stroke-width="2" stroke-linecap="round"/>
<path d="M114.451 180.51C110.888 183.328 105.645 180.794 105.64 176.252L105.576 121.937L103.656 90.7581C103.517 88.4945 104.665 86.3457 106.625 85.2045L109.316 83.6375C110.617 82.8799 112.155 82.639 113.625 82.9627L117.119 83.7318C119.7 84.2999 121.605 86.4898 121.811 89.1245L122.982 104.123C123.037 104.832 122.966 105.544 122.772 106.228L116.441 128.543C116.286 129.089 116.209 129.653 116.213 130.22L116.514 176.21C116.525 177.885 115.764 179.471 114.451 180.51Z" fill="#FFD049"/>
<path d="M23.4511 141.433C29.136 137.823 35.0698 133.425 39.3897 128.291C39.1851 126.266 37.4624 123.357 36.8681 121.309C35.4967 116.582 39.6442 111.725 42.5013 108.379L42.5048 108.375C48.8258 100.973 57.9311 97.764 67.189 95.8879C74.1822 94.4708 83.9124 99.6145 87.2889 105.802C89.338 109.556 90.4544 115.814 91.3367 120.044C92.4185 125.232 93.1098 130.669 93.2327 135.969C93.3774 142.213 93.9087 148.749 93.5309 154.97C93.3132 158.553 90.6375 163.564 92.1452 167.101C93.8969 171.21 96.4712 175.198 98.4331 179.224C99.7753 181.979 100.985 186.616 103.21 188.753C103.755 189.276 104.439 187.736 104.684 187.38C105.782 185.779 107.717 185.013 109.356 184.059C110.295 183.511 117.181 180.663 116.534 178.634C114.814 173.24 111.541 168.911 110.609 163.083C109.021 153.158 112.65 143.766 112.989 133.729C113.253 125.938 111.728 118.406 111.664 110.609C111.614 104.415 109.652 96.4725 106.534 91.1196C102.805 84.715 97.7678 82.289 91.5673 78.6029C84.8149 74.5887 78.113 71.4671 70.0857 71.7673C62.1619 72.0636 54.4417 72.1177 47.0116 75.3816C40.654 78.1744 35.1294 82.5139 30.1987 87.3172C24.9742 92.4069 21.6824 98.3497 17.7686 104.422C14.9711 108.761 12.2828 114.329 12.1276 119.631C11.9983 124.047 12.1397 128.492 13.5587 132.696C14.6974 136.069 17.6915 137.592 19.4709 140.491C21.3809 143.602 20.6613 143.205 23.4511 141.433Z" stroke="black" stroke-width="2" stroke-linecap="round"/>
<path d="M38.8244 129.106C39.9457 126.559 42.1493 124.125 44.1384 122.187C45.8379 120.531 48.5544 119.726 48.4485 117.109C48.4059 116.057 48.9382 115.245 48.6343 114.05C48.3376 112.883 47.6821 111.852 47.4064 110.722C47.1061 109.491 47.1991 105.149 47.2233 105.528" stroke="black" stroke-width="2" stroke-linecap="round"/>
<path d="M116.822 178.597C117.954 175.729 117.334 170.246 119.754 168.01C120.682 167.152 119.31 164.385 118.913 163.609C117.825 161.486 117.401 158.379 116.728 156.057C114.994 150.081 112.902 143.977 113.273 137.879" stroke="black" stroke-width="2" stroke-linecap="round"/>
<path d="M39.3 79.6523C41.5156 78.362 43.6796 76.6477 45.6932 75.0549C52.0761 70.006 59.6303 64.8778 67.7432 63.4709C75.8813 62.0597 83.1656 61.9792 90.9767 64.8034C94.773 66.176 98.8111 67.1204 102.515 68.7121C106.696 70.5093 108.401 72.5803 111.1 76.0888C115.572 81.9029 118.375 90.0396 119.425 97.1405C120.398 103.722 119.626 109.766 117.776 116.078C117.235 117.923 116.764 119.783 116.278 121.622C115.721 123.733 114.324 125.623 113.76 127.76" stroke="black" stroke-width="2" stroke-linecap="round"/>
<path d="M115.004 174.485C115.056 172.585 115.98 170.757 116.47 168.931C116.809 167.672 117.136 166.411 117.468 165.15C117.732 164.149 118.525 161.146 118.261 162.147" stroke="black" stroke-width="2" stroke-linecap="round"/>
<path d="M112.505 167.975L116.03 154.619" stroke="black" stroke-width="2" stroke-linecap="round"/>
<path d="M110.663 160.006L113.55 149.067" stroke="black" stroke-width="2" stroke-linecap="round"/>
<path d="M37.397 123.66C38.7569 122.825 39.6821 121.392 40.8076 120.275C42.4757 118.619 44.1055 116.809 45.5395 114.948C46.0115 114.335 46.449 113.758 46.9648 113.185C47.4847 112.607 48.0852 112.254 46.9533 112.713" stroke="black" stroke-width="2" stroke-linecap="round"/>
<path d="M37.9505 117.956C39.2191 115.884 40.9173 114.205 42.652 112.515C43.1822 111.998 44.0437 111.613 44.4743 111.023C44.6165 110.829 46.2718 108.922 45.6305 108.962" stroke="black" stroke-width="2" stroke-linecap="round"/>
<path d="M112.688 119.859C113.228 119.372 117.496 115.915 116.963 115.001" stroke="black" stroke-width="2" stroke-linecap="round"/>
<path d="M112.091 111.81C113.105 110.562 114.297 109.467 115.346 108.24C116.482 106.911 117.327 105.399 118.248 103.919C118.582 103.381 118.98 102.781 119.197 102.182C119.334 101.805 119.878 101.894 119.852 101.478" stroke="black" stroke-width="2" stroke-linecap="round"/>
<path d="M111.24 103.694C112.212 101.394 112.91 99.0451 114.014 96.7922C114.651 95.4911 114.818 94.087 115.584 92.8756C116.19 91.9181 117.029 89.8926 116.956 88.7401" stroke="black" stroke-width="2" stroke-linecap="round"/>
<path d="M107.726 91.7464C108.374 89.9653 108.744 88.0907 109.333 86.2897C109.909 84.5285 110.44 82.7165 110.599 80.8641C110.697 79.7143 110.613 78.6565 111.036 77.5477C111.154 77.2372 110.909 76.5089 110.738 76.2143" stroke="black" stroke-width="2" stroke-linecap="round"/>
<path d="M100.876 83.6797C100.992 82.1109 101.339 80.6283 101.663 79.0952C102.073 77.1504 101.551 75.6309 101.344 73.7427C101.177 72.2152 101.792 70.8343 100.967 69.4177" stroke="black" stroke-width="2" stroke-linecap="round"/>
<path d="M93.3135 78.8261C93.385 76.7121 93.8398 74.5512 93.7586 72.4431C93.698 70.8676 92.9133 69.3555 92.6974 67.7865C92.5746 66.894 92.604 65.408 92.1589 64.6435" stroke="black" stroke-width="2" stroke-linecap="round"/>
<path d="M114.451 180.51C110.888 183.328 105.645 180.794 105.64 176.252L105.576 121.937L103.656 90.7581C103.517 88.4945 104.665 86.3457 106.625 85.2045L109.316 83.6375C110.617 82.8799 112.155 82.639 113.625 82.9627L117.119 83.7318C119.7 84.2999 121.605 86.4898 121.811 89.1245L122.982 104.123C123.037 104.832 122.966 105.544 122.772 106.228L116.441 128.543C116.286 129.089 116.209 129.653 116.213 130.22L116.514 176.21C116.525 177.885 115.764 179.471 114.451 180.51Z" fill="#FFD049"/>
<path d="M23.4511 141.433C29.136 137.823 35.0698 133.425 39.3897 128.291C39.1851 126.266 37.4624 123.357 36.8681 121.309C35.4967 116.582 39.6442 111.725 42.5013 108.379L42.5048 108.375C48.8258 100.973 57.9311 97.764 67.189 95.8879C74.1822 94.4708 83.9124 99.6145 87.2889 105.802C89.338 109.556 90.4544 115.814 91.3367 120.044C92.4185 125.232 93.1098 130.669 93.2327 135.969C93.3774 142.213 93.9087 148.749 93.5309 154.97C93.3132 158.553 90.6375 163.564 92.1452 167.101C93.8969 171.21 96.4712 175.198 98.4331 179.224C99.7753 181.979 100.985 186.616 103.21 188.753C103.755 189.276 104.439 187.736 104.684 187.38C105.782 185.779 107.717 185.013 109.356 184.059C110.295 183.511 117.181 180.663 116.534 178.634C114.814 173.24 111.541 168.911 110.609 163.083C109.021 153.158 112.65 143.766 112.989 133.729C113.253 125.938 111.728 118.406 111.664 110.609C111.614 104.415 109.652 96.4725 106.534 91.1196C102.805 84.715 97.7678 82.289 91.5673 78.6029C84.8149 74.5887 78.113 71.4671 70.0857 71.7673C62.1619 72.0636 54.4417 72.1177 47.0116 75.3816C40.654 78.1744 35.1294 82.5139 30.1987 87.3172C24.9742 92.4069 21.6824 98.3497 17.7686 104.422C14.9711 108.761 12.2828 114.329 12.1276 119.631C11.9983 124.047 12.1397 128.492 13.5587 132.696C14.6974 136.069 17.6915 137.592 19.4709 140.491C21.3809 143.602 20.6613 143.205 23.4511 141.433Z" stroke="black" stroke-width="2" stroke-linecap="round"/>
<path d="M38.8244 129.106C39.9457 126.559 42.1493 124.125 44.1384 122.187C45.8379 120.531 48.5544 119.726 48.4485 117.109C48.4059 116.057 48.9382 115.245 48.6343 114.05C48.3376 112.883 47.6821 111.852 47.4064 110.722C47.1061 109.491 47.1991 105.149 47.2233 105.528" stroke="black" stroke-width="2" stroke-linecap="round"/>
<path d="M116.822 178.597C117.954 175.729 117.334 170.246 119.754 168.01C120.682 167.152 119.31 164.385 118.913 163.609C117.825 161.486 117.401 158.379 116.728 156.057C114.994 150.081 112.902 143.977 113.273 137.879" stroke="black" stroke-width="2" stroke-linecap="round"/>
<path d="M39.3 79.6523C41.5156 78.362 43.6796 76.6477 45.6932 75.0549C52.0761 70.006 59.6303 64.8778 67.7432 63.4709C75.8813 62.0597 83.1656 61.9792 90.9767 64.8034C94.773 66.176 98.8111 67.1204 102.515 68.7121C106.696 70.5093 108.401 72.5803 111.1 76.0888C115.572 81.9029 118.375 90.0396 119.425 97.1405C120.398 103.722 119.626 109.766 117.776 116.078C117.235 117.923 116.764 119.783 116.278 121.622C115.721 123.733 114.324 125.623 113.76 127.76" stroke="black" stroke-width="2" stroke-linecap="round"/>
<path d="M115.004 174.485C115.056 172.585 115.98 170.757 116.47 168.931C116.809 167.672 117.136 166.411 117.468 165.15C117.732 164.149 118.525 161.146 118.261 162.147" stroke="black" stroke-width="2" stroke-linecap="round"/>
<path d="M112.505 167.975L116.03 154.619" stroke="black" stroke-width="2" stroke-linecap="round"/>
<path d="M110.663 160.006L113.55 149.067" stroke="black" stroke-width="2" stroke-linecap="round"/>
<path d="M37.397 123.66C38.7569 122.825 39.6821 121.392 40.8076 120.275C42.4757 118.619 44.1055 116.809 45.5395 114.948C46.0115 114.335 46.449 113.758 46.9648 113.185C47.4847 112.607 48.0852 112.254 46.9533 112.713" stroke="black" stroke-width="2" stroke-linecap="round"/>
<path d="M37.9505 117.956C39.2191 115.884 40.9173 114.205 42.652 112.515C43.1822 111.998 44.0437 111.613 44.4743 111.023C44.6165 110.829 46.2718 108.922 45.6305 108.962" stroke="black" stroke-width="2" stroke-linecap="round"/>
<path d="M112.688 119.859C113.228 119.372 117.496 115.915 116.963 115.001" stroke="black" stroke-width="2" stroke-linecap="round"/>
<path d="M112.091 111.81C113.105 110.562 114.297 109.467 115.346 108.24C116.482 106.911 117.327 105.399 118.248 103.919C118.582 103.381 118.98 102.781 119.197 102.182C119.334 101.805 119.878 101.894 119.852 101.478" stroke="black" stroke-width="2" stroke-linecap="round"/>
<path d="M111.24 103.694C112.212 101.394 112.91 99.0451 114.014 96.7922C114.651 95.4911 114.818 94.087 115.584 92.8756C116.19 91.9181 117.029 89.8926 116.956 88.7401" stroke="black" stroke-width="2" stroke-linecap="round"/>
<path d="M107.726 91.7464C108.374 89.9653 108.744 88.0907 109.333 86.2897C109.909 84.5285 110.44 82.7165 110.599 80.8641C110.697 79.7143 110.613 78.6565 111.036 77.5477C111.154 77.2372 110.909 76.5089 110.738 76.2143" stroke="black" stroke-width="2" stroke-linecap="round"/>
<path d="M100.876 83.6797C100.992 82.1109 101.339 80.6283 101.663 79.0952C102.073 77.1504 101.551 75.6309 101.344 73.7427C101.177 72.2152 101.792 70.8343 100.967 69.4177" stroke="black" stroke-width="2" stroke-linecap="round"/>
<path d="M93.3135 78.8261C93.385 76.7121 93.8398 74.5512 93.7586 72.4431C93.698 70.8676 92.9133 69.3555 92.6974 67.7865C92.5746 66.894 92.604 65.408 92.1589 64.6435" stroke="black" stroke-width="2" stroke-linecap="round"/>
<path d="M82.3624 74.4391C81.7175 72.6872 81.5817 70.9711 81.5881 69.1251C81.592 67.9811 80.8243 66.968 80.4566 65.9087C80.2003 65.1704 80.0318 64.5048 79.8467 63.7522C79.6936 63.1303 79.8596 62.3334 79.0364 62.8127" stroke="black" stroke-width="2" stroke-linecap="round"/>
<path d="M129.4 203.808C131.099 197.374 127.921 188.42 120.243 188.082C118.843 188.021 117.04 188.729 115.814 189.443C115.171 189.818 114.097 190.203 113.794 190.89C113.666 191.182 112.138 192.396 112.695 191.26" stroke="black" stroke-width="2" stroke-linecap="round"/>
<path d="M117.847 191.74C118.636 190.721 119.515 189.684 120.21 188.624" stroke="black" stroke-width="2" stroke-linecap="round"/>
<path d="M122.697 191.7C123.084 191.213 123.842 190.63 123.803 190.012" stroke="black" stroke-width="2" stroke-linecap="round"/>
<path d="M126.745 193.868C126.918 193.452 127.987 191.767 127.288 191.811" stroke="black" stroke-width="2" stroke-linecap="round"/>
</g>
<defs>
<clipPath id="clip0_89_4370">
<rect width="378" height="250" fill="white"/>
</clipPath>
</defs>
</svg>
