<?xml version="1.0" encoding="UTF-8" standalone="no"?>
<!DOCTYPE svg PUBLIC "-//W3C//DTD SVG 1.1//EN" "http://www.w3.org/Graphics/SVG/1.1/DTD/svg11.dtd">
<svg width="100%" height="100%" viewBox="0 0 1169 977" version="1.1" xmlns="http://www.w3.org/2000/svg" xmlns:xlink="http://www.w3.org/1999/xlink" xml:space="preserve" xmlns:serif="http://www.serif.com/" style="fill-rule:evenodd;clip-rule:evenodd;">
    <g transform="matrix(1,0,0,1,0,-40)">
        <circle cx="1008" cy="920" r="124" style="fill:rgb(73,189,255);"/>
        <circle cx="1035" cy="917" r="123" style="fill:none;stroke:black;stroke-width:2px;"/>
        <g transform="matrix(0.681553,0.731768,-0.733467,0.679725,918.89,443)">
            <path d="M409.475,12C409.475,5.377 404.098,0 397.475,0L12,0C5.377,0 0,5.377 0,12L0,46.418C0,53.041 5.377,58.418 12,58.418L397.475,58.418C404.098,58.418 409.475,53.041 409.475,46.418L409.475,12Z" style="fill:rgb(255,208,73);"/>
        </g>
        <g transform="matrix(0.681553,0.731768,-0.733467,0.679725,901.848,331)">
            <path d="M409.475,12C409.475,5.377 404.098,0 397.475,0L12,0C5.377,0 0,5.377 0,12L0,46.418C0,53.041 5.377,58.418 12,58.418L397.475,58.418C404.098,58.418 409.475,53.041 409.475,46.418L409.475,12Z" style="fill:rgb(73,189,255);"/>
        </g>
        <g transform="matrix(0.681553,0.731768,-0.733467,0.679725,573.043,244)">
            <path d="M409.475,12C409.475,5.377 404.098,0 397.475,0L12,0C5.377,0 0,5.377 0,12L0,46.418C0,53.041 5.377,58.418 12,58.418L397.475,58.418C404.098,58.418 409.475,53.041 409.475,46.418L409.475,12Z" style="fill:rgb(251,73,255);"/>
        </g>
        <g transform="matrix(0.681553,0.731768,-0.733467,0.679725,919.909,430.49)">
            <path d="M407.423,12.412C407.423,6.34 402.494,1.411 396.423,1.411L10.948,1.411C4.877,1.411 -0.052,6.34 -0.052,12.412L-0.052,46.829C-0.052,52.901 4.877,57.829 10.948,57.829L396.423,57.829C402.494,57.829 407.423,52.901 407.423,46.829L407.423,12.412Z" style="fill:none;stroke:black;stroke-width:2px;"/>
        </g>
        <g transform="matrix(0.681553,0.731768,-0.733467,0.679725,902.866,318.49)">
            <path d="M407.423,12.412C407.423,6.34 402.494,1.411 396.423,1.411L10.948,1.411C4.877,1.411 -0.052,6.34 -0.052,12.412L-0.052,46.829C-0.052,52.901 4.877,57.829 10.948,57.829L396.423,57.829C402.494,57.829 407.423,52.901 407.423,46.829L407.423,12.412Z" style="fill:none;stroke:black;stroke-width:2px;"/>
        </g>
        <g transform="matrix(0.681553,0.731768,-0.733467,0.679725,517.866,123.49)">
            <path d="M407.423,12.412C407.423,6.34 402.494,1.411 396.423,1.411L10.948,1.411C4.877,1.411 -0.052,6.34 -0.052,12.412L-0.052,46.829C-0.052,52.901 4.877,57.829 10.948,57.829L396.423,57.829C402.494,57.829 407.423,52.901 407.423,46.829L407.423,12.412Z" style="fill:none;stroke:black;stroke-width:2px;"/>
        </g>
        <path d="M-11,833C27.097,896.494 74.144,954.759 117.667,1014.56C135.45,1038.99 152.913,1063.74 171.667,1087.44C176.76,1093.88 182.226,1102.48 189,1107" style="fill:none;fill-rule:nonzero;stroke:rgb(125,208,255);stroke-width:3px;stroke-linecap:round;"/>
        <path d="M69,825C101.008,883.337 140.37,936.267 178.556,990.556C187.877,1003.81 197.861,1017.24 209,1029C221.385,1042.07 230.468,1058.47 243,1071" style="fill:none;fill-rule:nonzero;stroke:rgb(125,208,255);stroke-width:3px;stroke-linecap:round;"/>
        <path d="M133,765C158.183,812.067 186.216,856.951 214.444,902.222C238.475,940.761 262.139,980.845 290.778,1016.22C299.276,1026.72 309.84,1041.69 320.556,1050.11C322.676,1051.78 324.833,1053.92 327,1055" style="fill:none;fill-rule:nonzero;stroke:rgb(125,208,255);stroke-width:3px;stroke-linecap:round;"/>
        <path d="M193,733C200.781,750.508 210.232,766.255 221.667,781.667C249.899,819.719 278.849,857.227 306.111,896C331.542,932.168 351.902,970.905 376.111,1007.67C382.256,1017 391.955,1022.91 397,1033" style="fill:none;fill-rule:nonzero;stroke:rgb(125,208,255);stroke-width:3px;stroke-linecap:round;"/>
        <path d="M-13,929C13.091,908.636 40.019,889.258 66.222,869C113.16,832.712 161.814,804.501 216.333,781.444C242.587,770.341 269.101,760.038 295.333,748.889C310.659,742.375 328.907,737.093 341,725" style="fill:none;fill-rule:nonzero;stroke:rgb(125,208,255);stroke-width:3px;stroke-linecap:round;"/>
        <path d="M31,999C81.457,973.772 129.368,943.704 180.667,920.222C218.55,902.881 259.668,891.972 296.333,872.111C312.691,863.25 329.871,855.96 345.444,845.778C356.341,838.653 367.664,828.668 379,823" style="fill:none;fill-rule:nonzero;stroke:rgb(125,208,255);stroke-width:3px;stroke-linecap:round;"/>
        <path d="M79,1077C100.72,1070.1 120.842,1058.63 141.444,1049C169.277,1035.99 197.147,1023.08 225,1010.11C274.697,986.976 324.239,962.902 372.556,937C388.695,928.348 405.41,922.468 422.556,916.556C426.107,915.331 437.081,907 437,907" style="fill:none;fill-rule:nonzero;stroke:rgb(125,208,255);stroke-width:3px;stroke-linecap:round;"/>
        <path d="M330,934C368.097,997.494 415.144,1055.76 458.667,1115.56C476.45,1139.99 493.913,1164.74 512.667,1188.44C517.76,1194.88 523.226,1203.48 530,1208" style="fill:none;fill-rule:nonzero;stroke:rgb(125,208,255);stroke-width:3px;stroke-linecap:round;"/>
        <path d="M410,926C442.008,984.337 481.37,1037.27 519.556,1091.56C528.877,1104.81 538.861,1118.24 550,1130C562.385,1143.07 571.468,1159.47 584,1172" style="fill:none;fill-rule:nonzero;stroke:rgb(125,208,255);stroke-width:3px;stroke-linecap:round;"/>
        <path d="M474,866C499.183,913.067 527.216,957.951 555.444,1003.22C579.475,1041.76 603.139,1081.84 631.778,1117.22C640.276,1127.72 650.84,1142.69 661.556,1151.11C663.676,1152.78 665.833,1154.92 668,1156" style="fill:none;fill-rule:nonzero;stroke:rgb(125,208,255);stroke-width:3px;stroke-linecap:round;"/>
        <path d="M534,834C541.781,851.508 551.232,867.255 562.667,882.667C590.899,920.719 619.849,958.227 647.111,997C672.542,1033.17 692.902,1071.91 717.111,1108.67C723.256,1118 732.955,1123.91 738,1134" style="fill:none;fill-rule:nonzero;stroke:rgb(125,208,255);stroke-width:3px;stroke-linecap:round;"/>
        <path d="M328,1030C354.091,1009.64 381.019,990.258 407.222,970C454.16,933.712 502.814,905.501 557.333,882.444C583.587,871.341 610.101,861.038 636.333,849.889C651.659,843.375 669.907,838.093 682,826" style="fill:none;fill-rule:nonzero;stroke:rgb(125,208,255);stroke-width:3px;stroke-linecap:round;"/>
        <path d="M372,1100C422.457,1074.77 470.368,1044.7 521.667,1021.22C559.55,1003.88 600.668,992.972 637.333,973.111C653.691,964.25 670.871,956.96 686.444,946.778C697.341,939.653 708.664,929.668 720,924" style="fill:none;fill-rule:nonzero;stroke:rgb(125,208,255);stroke-width:3px;stroke-linecap:round;"/>
        <path d="M420,1178C441.72,1171.1 461.842,1159.63 482.444,1150C510.277,1136.99 538.147,1124.08 566,1111.11C615.697,1087.98 665.239,1063.9 713.556,1038C729.695,1029.35 746.41,1023.47 763.556,1017.56C767.107,1016.33 778.081,1008 778,1008" style="fill:none;fill-rule:nonzero;stroke:rgb(125,208,255);stroke-width:3px;stroke-linecap:round;"/>
        <circle cx="406" cy="459" r="124" style="fill:rgb(255,208,73);"/>
        <circle cx="492" cy="502" r="123" style="fill:none;stroke:black;stroke-width:2px;"/>
        <path d="M1104.5,280.5L1079,276L1022.5,365L1036,365L1104.5,280.5Z" style="fill:rgb(255,208,73);fill-rule:nonzero;"/>
        <path d="M1095,280.5L1069.5,276L1013,365L1063.5,365L1032.5,430L1088.5,355L1045,346L1095,280.5Z" style="fill:none;fill-rule:nonzero;stroke:black;stroke-width:1px;"/>
        <path d="M406.264,676.929C406.37,685.622 408.547,693.789 409.996,702.297C410.024,702.459 410.742,706.008 409.398,704.688C406.788,702.126 405.381,697.188 405.204,693.665C404.746,684.54 411.771,672.595 421.403,671.273C425.604,670.696 430.065,672.499 432.386,676.015" style="fill:none;fill-rule:nonzero;stroke:black;stroke-width:3px;stroke-linecap:round;"/>
        <path d="M423.629,697.832C429.671,700.124 437.618,700.368 442.132,694.723C443.508,693.002 444.121,690.237 442.595,688.378C439.674,684.82 435.402,688.806 433.396,691.136C429.155,696.062 424.345,706.428 433.872,708.474C441.743,710.165 449.323,705.416 455.916,701.756" style="fill:none;fill-rule:nonzero;stroke:black;stroke-width:3px;stroke-linecap:round;"/>
        <path d="M456.104,690.348C457.161,695.421 458.736,700.173 460.07,705.151C460.913,708.296 459.675,706.986 459.217,704.658C458.2,699.487 457.278,691.648 461.005,687.277C465.031,682.555 467.945,697.45 468.016,699.145C468.096,701.038 468.363,706.367 467.319,704.786C466.616,703.72 468.055,700.035 468.353,699.055C469.57,695.047 473.938,683.265 479.964,688.056C483.832,691.131 484.164,696.965 484.097,701.462C484.065,703.612 487.438,701.829 488.702,701.49" style="fill:none;fill-rule:nonzero;stroke:black;stroke-width:3px;stroke-linecap:round;"/>
        <path d="M503.604,688.978C499.334,692.528 495.748,697.832 497.494,703.687C499.082,709.011 506.658,710.871 509.248,705.247C511.54,700.269 509.334,694.336 505.121,691.276C504.02,690.477 498.432,687.962 499.008,686.965" style="fill:none;fill-rule:nonzero;stroke:black;stroke-width:3px;stroke-linecap:round;"/>
        <path d="M522.622,678.203C524.074,686.696 525.714,695.251 526.449,703.838C526.696,706.735 527.721,710.581 524.274,708.59" style="fill:none;fill-rule:nonzero;stroke:black;stroke-width:3px;stroke-linecap:round;"/>
        <path d="M514.364,695.831C520.512,690.438 531.732,690.828 539.472,691.131" style="fill:none;fill-rule:nonzero;stroke:black;stroke-width:3px;stroke-linecap:round;"/>
        <path d="M546.171,699.478C550.861,699.585 559.151,698.273 559.767,692.184C560.011,689.767 557.518,687.929 555.264,688.162C551.264,688.576 548.228,692.517 547.484,696.219C545.634,705.424 557.697,709.172 564.686,709.03C568.484,708.953 574.161,709.481 576.795,706.281" style="fill:none;fill-rule:nonzero;stroke:black;stroke-width:3px;stroke-linecap:round;"/>
        <path d="M538.671,741.977C538.827,741.43 539.231,739.261 540.145,740.966C542.198,744.795 542.633,749.042 543.737,752.981C544.564,755.929 545.053,759.006 546.391,761.901C546.965,763.143 546.493,761.282 546.391,760.995" style="fill:none;fill-rule:nonzero;stroke:black;stroke-width:3px;stroke-linecap:round;"/>
        <path d="M529.671,752.303C533.322,750.532 536.589,750.571 540.578,750.364C546.036,750.082 551.206,748.937 556.449,747.495C557.49,747.209 559.799,746.062 557.586,745.324" style="fill:none;fill-rule:nonzero;stroke:black;stroke-width:3px;stroke-linecap:round;"/>
        <path d="M615.346,762.607C605.887,768.314 602.63,786.179 609.43,794.873C616.583,804.018 627.452,795.757 633.176,789.541" style="fill:none;fill-rule:nonzero;stroke:black;stroke-width:3px;stroke-linecap:round;"/>
        <path d="M652.133,768.296C647.205,766.591 646.186,777.335 645.822,780.467C644.855,788.777 651.584,798.518 660.084,791.754C671.678,782.529 651.673,763.844 647.695,770.479" style="fill:none;fill-rule:nonzero;stroke:black;stroke-width:3px;stroke-linecap:round;"/>
        <path d="M671.026,762.324C672.704,771.186 674.642,779.989 676.562,788.801C677.422,792.749 677.912,797.255 679.314,801.099C680.334,803.892 681.708,799.418 682.042,798.511" style="fill:none;fill-rule:nonzero;stroke:black;stroke-width:3px;stroke-linecap:round;"/>
        <path d="M684.276,762.324C685.975,772.519 687.344,782.694 688.538,792.955C688.847,795.606 688.798,799.451 689.593,801.801" style="fill:none;fill-rule:nonzero;stroke:black;stroke-width:3px;stroke-linecap:round;"/>
        <path d="M704.176,773.39C702.273,771.541 700.908,770.515 698.892,772.937C696.252,776.109 693.464,781.303 693.739,785.578C694.04,790.266 699.393,790.761 702.809,789.079C707.047,786.992 708.453,781.617 709.163,777.348C709.342,776.274 709.002,770.361 708.874,771.437C708.364,775.748 709.851,780.397 711.353,784.357C712.394,787.105 713.664,792.085 716.156,793.994C717.312,794.878 718.016,791.65 718.211,791.119" style="fill:none;fill-rule:nonzero;stroke:black;stroke-width:3px;stroke-linecap:round;"/>
        <path d="M718.639,763.324C719.951,774.452 722.178,785.309 724.531,796.265C725.046,798.663 725.481,795.332 725.713,794.548C727.261,789.332 730.404,782.325 735.953,780.299C739.306,779.076 740.981,782.421 740.981,785.206C740.982,788.866 739.184,791.8 736.307,793.961C733.828,795.823 730.604,797.113 727.444,796.778C724.217,796.435 726.297,792.271 726.759,790.547" style="fill:none;fill-rule:nonzero;stroke:black;stroke-width:3px;stroke-linecap:round;"/>
        <path d="M753.323,775.915C752.353,778.693 747.599,787.037 751.706,789.343C755.4,791.417 760.849,789.973 762.033,785.554C763.848,778.781 751.764,775.564 748.773,771.324" style="fill:none;fill-rule:nonzero;stroke:black;stroke-width:3px;stroke-linecap:round;"/>
        <path d="M766.653,781.442C768.797,785.156 770.908,788.891 773.086,792.586C775.175,796.128 771.893,791.409 771.501,790.314C769.679,785.224 769.741,777.186 774.41,773.566C777.971,770.804 782.345,772.447 785.962,774.093" style="fill:none;fill-rule:nonzero;stroke:black;stroke-width:3px;stroke-linecap:round;"/>
        <path d="M795.52,770.083C792.081,771.623 789.884,773.7 787.95,776.965C786.107,780.075 782.081,787.47 786.074,790.458C794.457,796.73 797.28,777.898 798.447,773.543C798.882,771.918 799.155,770.543 799.17,773.041C799.2,777.912 798.933,782.827 799.475,787.68C799.536,788.221 799.921,793.187 801.411,792.64C802.648,792.187 803.15,789.699 803.56,788.614" style="fill:none;fill-rule:nonzero;stroke:black;stroke-width:3px;stroke-linecap:round;"/>
        <path d="M806.444,765.324C809.038,775.152 811.319,785.342 811.264,795.57C811.256,797.247 811.499,800.5 811.441,797.008" style="fill:none;fill-rule:nonzero;stroke:black;stroke-width:3px;stroke-linecap:round;"/>
        <path d="M801.627,785.559C806.749,784.22 811.836,782.925 817.094,782.264C819.258,781.992 821.488,780.194 823.513,779.382" style="fill:none;fill-rule:nonzero;stroke:black;stroke-width:3px;stroke-linecap:round;"/>
        <path d="M828.424,770.324C830.116,777.925 829.93,785.461 831.101,793.091C831.666,796.78 832.396,792.113 832.475,791.158" style="fill:none;fill-rule:nonzero;stroke:black;stroke-width:3px;stroke-linecap:round;"/>
        <path d="M826.066,749.926C824.517,752.898 822.226,756.005 823.423,759.493C824.365,762.241 827.424,764.115 829.611,761.366C833.562,756.398 827.565,752.254 823.338,751.122" style="fill:none;fill-rule:nonzero;stroke:black;stroke-width:3px;stroke-linecap:round;"/>
        <path d="M844.547,772.205C841.27,776.466 837.338,783.789 839.683,789.259C842.698,796.294 853.46,794.069 855.265,787.333C856.979,780.935 852.413,774.048 846.999,771.043C846.08,770.533 840.622,769.31 843.143,768.457" style="fill:none;fill-rule:nonzero;stroke:black;stroke-width:3px;stroke-linecap:round;"/>
        <path d="M862.676,776.109C863.735,780.84 864.759,785.57 865.27,790.398C865.421,791.829 865.107,796.123 865.398,794.714C865.823,792.65 865.582,790.474 865.943,788.384C866.881,782.955 868.418,776.874 871.618,772.297C873.124,770.144 876.063,767.568 878.079,770.656C880.485,774.34 879.532,779.915 879.134,783.997C878.884,786.55 878.613,789.138 878.227,791.675C878.096,792.534 878.422,791.047 878.453,790.933" style="fill:none;fill-rule:nonzero;stroke:black;stroke-width:3px;stroke-linecap:round;"/>
        <path d="M134.55,303.104C134.903,302.178 135.183,300.006 136.274,299.604C138.041,298.953 140.363,302.033 141.232,303.051C144.503,306.879 147.103,311.409 149.373,315.885C150.167,317.45 150.411,319.152 150.778,316.946" style="fill:none;fill-rule:nonzero;stroke:black;stroke-width:3px;stroke-linecap:round;"/>
        <path d="M128.823,292.603C128.773,292.49 126.449,288.189 126.065,290.164C125.418,293.489 129.755,295.702 132.111,293.346C138.256,287.201 128.777,282.81 127.868,287.353" style="fill:none;fill-rule:nonzero;stroke:black;stroke-width:3px;stroke-linecap:round;"/>
        <path d="M155.552,274.466C162.602,281.81 168.582,290.073 176.394,296.713C176.557,296.852 179.062,298.454 177.772,297.164C175.96,295.352 173.272,293.774 170.719,293.399C162.563,292.199 154.521,305.836 164.514,308.619C172.249,310.773 178.505,304.8 179.894,297.853" style="fill:none;fill-rule:nonzero;stroke:black;stroke-width:3px;stroke-linecap:round;"/>
        <path d="M183.235,288.308C184.84,286.89 196.518,277.091 190.394,274.784C184.81,272.68 184.805,283.958 185.303,286.611C186.133,291.027 191.407,295.112 195.91,292.762C199.892,290.685 202.397,284.338 204.713,280.671" style="fill:none;fill-rule:nonzero;stroke:black;stroke-width:3px;stroke-linecap:round;"/>
        <path d="M205.668,253.465C194.768,260.606 203.958,280.038 216.752,275.261C224.365,272.419 220.689,264.175 217.866,258.954C216.057,255.61 214.045,252.23 210.176,251.184C209.968,251.128 208.076,250.888 208.744,251.556C212.81,255.621 217.905,259.155 222.745,262.215C223.902,262.947 232.635,268.738 230.01,263.488" style="fill:none;fill-rule:nonzero;stroke:black;stroke-width:3px;stroke-linecap:round;"/>
        <path d="M238.865,258.648C243.425,258.45 247.192,254.92 247.192,250.121C247.192,244.319 232.364,249.544 229.915,250.054C228.372,250.375 224.993,251.403 223.948,249.564C222.406,246.849 223.233,241.754 224.104,238.922C225.295,235.05 228.618,234.145 232.052,233" style="fill:none;fill-rule:nonzero;stroke:black;stroke-width:3px;stroke-linecap:round;"/>
        <path d="M89.898,282.578C86.157,286.409 85.055,290.742 85.003,296.119C84.912,305.615 86.662,315.635 92.345,323.473C97.959,331.217 111.314,337.347 118.693,328.123C118.95,327.802 119.821,325.913 118.992,325.676C117.571,325.269 117.474,329.005 117.415,329.673C116.544,339.636 127.274,348.163 136.504,348.163C141.535,348.163 146.035,346.329 149.99,343.268C154.795,339.55 156.395,334.052 159.616,329.156C159.987,328.593 161.796,324.887 162.716,324.887C162.812,324.887 163.029,325.942 163.042,325.975C163.684,327.58 164.559,329.126 165.544,330.543C167.64,333.562 169.916,336.675 173.81,337.286C179.009,338.102 185.738,336.517 190.723,335.22C201.714,332.359 207.354,320.236 206.004,309.606C205.36,304.53 207.496,308.9 209.865,309.714C213.787,311.063 217.349,309.788 221.014,308.192C225.661,306.167 230.966,303.846 233.495,299.164C235.943,294.631 237.313,285.483 234.881,280.62C234.544,279.945 235.158,281.61 235.262,281.843C235.877,283.226 249.59,282.392 250.91,282.578M255,261.5C254.94,260.825 264.169,259.446 263.5,259C263.5,259 268.696,255.216 270.339,255.06C273.766,254.735 276.761,254.019 278.768,251.009C282.412,245.542 280.685,237.489 277.354,232.491C275.184,229.237 270.397,224.979 266.206,224.824C264.595,224.764 267.989,224.173 268.055,222.268C268.25,216.6 262.816,212.443 258.211,210.14C251.28,206.675 241.547,206.585 234.038,207.476C227.234,208.283 218.838,210.711 213.346,215.035C212.505,215.697 210.641,217.148 210.328,218.243C210.051,219.213 208.392,217.725 207.636,217.373C199.174,213.434 187.572,213.524 178.568,214.79C173.296,215.531 168.548,217.334 163.477,218.841C158.608,220.289 153.902,221.679 149.555,224.416C143.231,228.398 136.562,234.323 136.395,242.335C136.33,245.453 137.475,247.338 133.948,247.338C126.372,247.338 118.036,247.989 110.835,250.519C107.882,251.557 106.052,254.573 103.983,256.746C100.973,259.906 98.007,263.86 97.756,268.384C97.664,270.04 98.685,274.987 97.348,276.324C96.472,277.199 94.884,278.413 93.813,279.043C92.846,279.612 91.333,281.183 90.768,282.088C89.833,283.584 87.595,284.104 86.961,286.004" style="fill:none;fill-rule:nonzero;stroke:black;stroke-width:3px;stroke-linecap:round;"/>
        <path d="M250,283C253.123,282.49 256.221,282.94 259.366,282.94C263.251,282.94 267.044,282.365 270.904,282.047C275.397,281.677 279.974,281.928 284.478,281.928C286.706,281.928 294.713,282.064 288.958,280.022C284.315,278.374 279.404,277.534 275.112,274.93C271.424,272.692 267.798,270.585 263.927,268.766C261.286,267.524 259.764,265.36 257.819,263.227C257.408,262.776 255.375,261.671 255.375,262.095" style="fill:none;fill-rule:nonzero;stroke:black;stroke-width:3px;stroke-linecap:round;"/>
        <path d="M245,816.525C245.459,806.658 253.5,795.352 260.191,788.542C267.428,781.175 276.577,770.499 287.374,768.732C290.7,768.188 296.311,767.785 299.367,769.354C302.119,770.767 304.4,776.893 305.585,779.57C309.506,788.428 309.67,796.179 306.562,805.332C304.604,811.098 298.454,815.938 292.171,812.527C286.516,809.458 284.994,796.259 287.552,790.94C296.592,772.136 319.525,759.728 338.898,771.752C346.363,776.386 353.165,786.874 353.689,795.782C353.923,799.761 354.569,812.977 348.492,814.082C338.987,815.81 340.141,801.983 340.141,796.182C340.141,789.01 344.385,781.302 350.535,777.349C357.37,772.955 364.517,770.953 372.655,770.953L386.069,770.953C390.569,770.953 394.532,772.703 398.905,773.351C407.85,774.676 415.491,778.184 423.246,782.546C425.403,783.759 429.065,786.943 431.285,786.943" style="fill:none;fill-rule:nonzero;stroke:black;stroke-width:2px;stroke-linecap:round;"/>
        <path d="M449.26,770.642C451.946,773.866 456.119,775.637 459.956,777.122C466.943,779.826 473.784,781.825 480.398,785.499C483.466,787.203 486.512,789.027 489.433,790.975C490.267,791.531 490.657,792.126 489.926,793.019C487.442,796.055 483.297,798.108 480.088,800.247C475.058,803.601 470.058,807.028 465.34,810.815C463.025,812.674 460.968,814.895 458.806,816.93C457.922,817.762 456.221,819.064 454.863,818.554C453.415,818.011 453.658,813.431 453.604,812.367C453.298,806.397 453.325,800.405 452.874,794.443C452.535,789.959 451.587,785.546 451.56,781.046C451.544,778.544 451.839,776.046 450.72,773.745C450.185,772.645 449.588,772.733 449.588,771.372C449.588,770.032 448.962,769.991 450.574,770.313" style="fill:none;fill-rule:nonzero;stroke:black;stroke-width:2px;stroke-linecap:round;"/>
        <path d="M682.406,646.859C672.262,653.868 662.36,661.855 652.761,669.616C651.118,670.945 647.367,672.709 649.796,672.755C659.042,672.929 665.239,678.691 672.205,683.915C673.511,684.895 675.344,687.215 675.344,684.526" style="fill:none;fill-rule:nonzero;stroke:black;stroke-width:2px;stroke-linecap:round;"/>
        <path d="M690.814,666.444C732.838,669.311 775.095,668.149 817.18,667.813C824.17,667.757 832.712,668.602 839.61,666.984C843.832,665.994 844.41,667.667 840.367,664.851" style="fill:none;fill-rule:nonzero;stroke:black;stroke-width:2px;stroke-linecap:round;"/>
        <path d="M856.576,639C863.25,645.751 870.589,649.996 878.679,654.818C882.954,657.366 887.979,657.1 883.639,661.817C876.084,670.028 867.388,677.351 859.54,685.303C856.216,688.672 856.103,690.561 859.437,685.37" style="fill:none;fill-rule:nonzero;stroke:black;stroke-width:2px;stroke-linecap:round;"/>
        <path d="M711.078,96.395C700.831,96.395 692.001,95.542 683.839,102.914C667.323,117.832 661.685,139.74 662.013,161.232C662.408,187.057 670.438,208.13 689.776,225.604C707.711,241.81 735.36,250.042 759.27,246.557C781.543,243.311 804.58,228.803 820.848,213.731C834.391,201.183 845.115,184.385 842.441,165.074C840.383,150.208 830.807,137.912 821.081,127.009C811.903,116.722 802.966,106.566 790.233,100.644C774.411,93.285 760.29,87.685 742.507,88.014C734.668,88.159 727.813,94.3 720.041,94.3C715.382,94.3 710.614,96.395 705.84,96.395C703.122,96.395 694.139,98.49 701.649,98.49" style="fill:none;fill-rule:nonzero;stroke:black;stroke-width:3px;stroke-linecap:round;"/>
        <path d="M873.463,189.635C865.572,192.266 864.11,201.961 864.325,209.482C864.622,219.856 873.72,227.993 883.125,231.075C889.662,233.218 897.267,233.083 903.554,230.261C910.499,227.142 920.993,222.665 925.671,216.35C932.799,206.728 926.28,193.221 918.046,187.074C911.66,182.307 904.869,180.075 897.035,181.778C892.081,182.855 881.249,180.337 877.421,184.164C875.132,186.453 870.19,190.224 867.177,191.731" style="fill:none;fill-rule:nonzero;stroke:black;stroke-width:3px;stroke-linecap:round;"/>
        <path d="M957.275,201.159C952.345,197.574 950.487,198.003 948.661,204.186C946.175,212.598 945.405,223.945 952.735,230.261C963.428,239.475 980.492,236.622 991.381,229.679C999.924,224.231 999.18,217.048 999.18,207.911C999.18,202.036 989.292,200.406 984.513,198.017C977.978,194.749 967.802,193.826 960.418,193.826C958.223,193.826 954.408,195.335 952.851,196.736C950.158,199.16 948.559,201.828 950.989,196.969" style="fill:none;fill-rule:nonzero;stroke:black;stroke-width:3px;stroke-linecap:round;"/>
        <path d="M1016.95,224.375C1014.84,231.342 1012.85,241.095 1023.95,239.43C1029.75,238.561 1037.69,231.413 1035.28,224.819C1032.47,217.146 1016.47,217.819 1013.95,225.375" style="fill:none;fill-rule:nonzero;stroke:black;stroke-width:3px;stroke-linecap:round;"/>
        <path d="M703.745,171.825C679.537,152.753 726.442,112.572 734.941,145.052C739.019,160.634 736.463,181.278 732.555,196.911C731.581,200.805 732.031,207.389 732.031,199.064" style="fill:none;fill-rule:nonzero;stroke:black;stroke-width:3px;stroke-linecap:round;"/>
        <path d="M728.888,222.112C734.944,234.83 749.076,227.038 739.83,215.943C735.009,210.158 726.793,212.819 726.793,220.017" style="fill:none;fill-rule:nonzero;stroke:black;stroke-width:3px;stroke-linecap:round;"/>
        <path d="M767.651,123.634C767.111,120.326 766.521,111.624 766.603,120.374C766.737,134.598 769.145,148.646 770.794,162.746C771.716,170.631 773.99,177.807 775.799,185.445C776,186.293 776.032,192.125 776.032,188.588" style="fill:none;fill-rule:nonzero;stroke:black;stroke-width:3px;stroke-linecap:round;"/>
        <path d="M773.937,211.636C772.99,218.264 776.267,220.599 782.9,220.599C786.49,220.599 789.871,218.734 789.651,214.779C789.434,210.862 784.199,209.611 781.038,209.54C780.209,209.522 774.829,209.54 776.032,209.54" style="fill:none;fill-rule:nonzero;stroke:black;stroke-width:3px;stroke-linecap:round;"/>
        <path d="M218.29,582C205.29,609.5 189.79,629 172.79,634.5C150.29,631 144.29,617.719 144.29,589C144.29,560.281 176.512,537.5 195.29,537.5C218.29,544.5 218.29,558.5 218.29,582Z" style="fill:rgb(255,208,73);fill-rule:nonzero;"/>
        <path d="M137.04,609.25C134.34,608.264 132.01,606.187 129.984,604.195C126.245,600.517 122.583,596.874 120.054,592.236C117.737,587.989 115.474,582.696 114.956,577.847C114.265,571.377 116.545,566.045 120.484,561.056C135.574,541.942 163.461,532.623 187.012,539.139C191.739,540.447 195.927,542.27 199.456,545.778C203.112,549.412 206.007,553.731 208.054,558.458C209.843,562.591 211.484,567.501 211.484,572.07C211.484,575.3 210.657,578.466 209.706,581.528C208.525,585.333 207.391,589.285 205.79,592.945C202.87,599.619 196.942,604.384 191.54,609.014C187.44,612.528 184.934,616.504 183.54,621.695C182.558,625.347 181.161,629.694 178.665,632.625C177.375,634.139 176.034,635.543 174.554,636.875C173.044,638.234 171.894,640.063 169.984,640.945C166.363,642.616 162.187,642.317 158.29,642.486C154.572,642.648 151.843,642.42 148.984,639.889C147.567,638.635 146.691,637.021 145.845,635.361C144.942,633.587 143.654,632.07 142.804,630.264C141.041,626.519 140.231,622.255 139.04,618.306C138.225,615.604 137.588,613.083 137.276,610.278C137.209,609.673 136.999,608.964 136.79,608.389C136.457,607.473 136.305,608.219 136.04,608.75" style="fill:none;fill-rule:nonzero;stroke:black;stroke-width:2px;stroke-linecap:round;"/>
        <path d="M155.79,660.5C157.699,660.222 159.635,660.766 161.484,660.444C162.957,660.188 164.361,659.631 165.734,659.055C167.335,658.384 170.352,657.471 170.79,655.5C171.627,651.733 171.54,648.088 171.54,644.25C171.54,642.544 170.759,640.43 168.79,641.305C167.932,641.687 166.847,641.75 165.901,641.75C164.059,641.75 162.325,642 160.484,642C157.459,642 154.286,642.558 151.29,642.986C150.858,643.048 150.347,642.894 149.929,643.014C149.41,643.162 149.642,644.146 149.484,644.5C148.904,645.805 149.526,647.416 149.79,648.736C150.45,652.039 152.952,654.824 154.484,657.75C154.944,658.627 155.557,659.266 156.04,660.111C156.239,660.46 157.886,661.25 157.79,661.25" style="fill:none;fill-rule:nonzero;stroke:black;stroke-width:2px;stroke-linecap:round;"/>
        <path d="M156.79,656.25C159.944,656.484 162.883,655.739 165.54,654C165.92,653.751 166.866,653.348 167.04,653" style="fill:none;fill-rule:nonzero;stroke:black;stroke-width:2px;stroke-linecap:round;"/>
        <path d="M153.04,652C157.535,651.945 162.307,651.757 165.929,648.806C166.468,648.366 167.306,647.5 168.04,647.5" style="fill:none;fill-rule:nonzero;stroke:black;stroke-width:2px;stroke-linecap:round;"/>
        <path d="M155.04,647.75C157.698,647.418 160.134,646.951 162.679,646.111C163.416,645.868 164.249,645.5 165.04,645.5" style="fill:none;fill-rule:nonzero;stroke:black;stroke-width:2px;stroke-linecap:round;"/>
        <path d="M158.04,662.75C160.707,664.711 163.573,663.332 166.345,662.305C167.466,661.891 167.763,661.591 168.665,660.889C169.625,660.142 165.154,661.718 164.54,661.75C163.207,661.82 162.362,661.918 161.262,662.625C160.969,662.813 159.182,663.781 158.845,663.444C158.553,663.152 158.899,662.894 158.415,662.625C158.05,662.422 157.747,662.147 157.415,661.889C157.108,661.65 156.679,661.474 156.29,661.5C156.105,661.512 157.143,662.119 157.29,662.25C158.284,663.139 159.418,663 160.651,663C162.061,663 162.837,662.918 160.845,662.555C159.704,662.348 159.051,662.459 158.165,661.75C157.75,661.418 159.221,661.503 159.345,661.5C160.355,661.478 161.613,661.162 162.54,660.75C163.177,660.467 168.595,658.764 168.984,659.5C170.123,661.65 167.968,662.25 166.29,662.25" style="fill:none;fill-rule:nonzero;stroke:black;stroke-width:2px;stroke-linecap:round;"/>
        <path d="M160.04,640.5C161.023,639.235 162.309,638.192 163.04,636.75C164.136,634.587 164.259,632.361 164.29,629.972C164.344,625.711 164.696,622.171 163.095,618.111C162.773,617.295 162.299,616.444 161.29,616.5C159.933,616.575 159.073,619.824 158.734,620.778C158.124,622.496 156.881,626.344 158.206,628.083C159.512,629.797 162.633,628.758 164.095,628C166.449,626.779 169.285,625.426 170.79,623.139C172.535,620.485 173.289,616.88 173.484,613.75C173.83,608.22 172.626,603.123 170.095,598.222C168.352,594.845 165.418,593.361 161.845,595.056C157.273,597.224 154.574,607.639 161.831,607.639C169.743,607.639 172.37,598.721 172.526,592.403C172.633,588.044 172.812,582.659 169.026,579.653C167.01,578.052 160.04,574.46 160.04,579.375C160.04,581.621 161.105,581.688 163.04,582.111C166.213,582.805 168.777,580.422 169.248,577.278C169.7,574.265 168.589,571.171 165.804,569.639C165.426,569.431 163.412,568.628 163.54,568.5" style="fill:none;fill-rule:nonzero;stroke:black;stroke-width:2px;stroke-linecap:round;"/>
        <path d="M115.623,649.09C108.611,658.075 116.184,648.809 119.05,645.664C120.2,644.401 129.244,635.299 128.568,634.623" style="fill:none;fill-rule:nonzero;stroke:black;stroke-width:2px;stroke-linecap:round;"/>
        <path d="M187.198,524.977C194.362,515.343 203.475,507.714 211.267,498.623C213.596,495.907 211.729,498.625 210.802,499.089" style="fill:none;fill-rule:nonzero;stroke:black;stroke-width:2px;stroke-linecap:round;"/>
        <path d="M150.691,525.324C149.291,513.4 150.685,501.597 150.115,489.637C149.945,486.063 150.453,489.321 150.096,490.295" style="fill:none;fill-rule:nonzero;stroke:black;stroke-width:2px;stroke-linecap:round;"/>
        <path d="M88.661,512.719C99.38,518.128 108.455,525.801 118.746,531.922C121.821,533.752 118.824,532.378 118.208,531.543" style="fill:none;fill-rule:nonzero;stroke:black;stroke-width:2px;stroke-linecap:round;"/>
        <path d="M199.79,629.715C210.508,635.124 219.584,642.797 229.875,648.918C232.95,650.747 229.952,649.374 229.337,648.539" style="fill:none;fill-rule:nonzero;stroke:black;stroke-width:2px;stroke-linecap:round;"/>
        <path d="M68,583.123C79.695,580.41 91.58,580.487 103.403,578.594C106.936,578.029 103.754,578.895 102.747,578.648" style="fill:none;fill-rule:nonzero;stroke:black;stroke-width:2px;stroke-linecap:round;"/>
        <path d="M216.79,575.006C225.712,572.166 234.596,571.461 243.561,569.244C246.24,568.581 243.805,569.452 243.067,569.328" style="fill:none;fill-rule:nonzero;stroke:black;stroke-width:2px;stroke-linecap:round;"/>
    </g>
</svg>
